ply
format ascii 1.0
element vertex 512
property float x
property float y
property float z
property uchar red
property uchar green
property uchar blue
element edge 887
property int vertex1
property int vertex2
end_header
10.1976 -2.5894 11.4357 12 0 243
9.7869 -2.4334 12.2086 2 0 253
8.9690 -2.4949 11.6419 8 0 247
8.1278 -2.3154 11.1103 10 0 245
7.1107 -2.5776 9.5217 5 0 250
8.1660 -1.9740 8.5390 7 0 248
9.7990 -3.0509 11.9930 11 0 244
7.9264 -4.3663 11.3897 15 0 240
8.3996 -2.8609 11.2942 10 0 245
6.4822 -2.2521 8.7284 17 0 238
6.5694 -1.4240 10.2992 11 0 244
7.9386 -3.0984 10.9458 11 0 244
6.3087 -1.6216 9.4067 4 0 251
7.6442 -2.5581 11.0468 10 0 245
8.3135 -2.2323 8.4647 12 0 243
7.4562 -3.5421 12.0589 15 0 240
8.9213 -2.3641 12.6447 0 0 255
8.7278 -3.0792 8.7029 19 0 236
7.4059 -1.9705 10.9945 9 0 246
10.0534 -2.4423 10.3044 2 0 253
8.8324 -1.9371 12.6005 14 0 241
7.6069 -0.6512 9.8423 2 0 253
8.3395 -2.9600 12.1284 5 0 250
8.6366 -2.3961 11.9635 0 0 255
8.8979 -1.8885 9.0182 8 0 247
6.8439 -2.5923 9.6200 12 0 243
7.7251 -0.6780 9.9320 14 0 241
7.3680 -0.9280 9.2738 20 0 235
7.4605 -0.6713 9.4411 19 0 236
8.4820 -1.6934 12.0164 6 0 249
6.8768 -1.1917 11.0172 5 0 250
7.4510 -1.2871 8.9657 36 0 219
6.8832 -0.9386 10.0951 4 0 251
9.5900 -2.8459 11.7700 13 0 242
9.9032 -2.8105 11.7120 3 0 252
7.7193 -1.5182 9.3957 9 0 246
9.7013 -1.9257 10.1613 7 0 248
8.1640 -2.2625 12.4385 2 0 253
6.8152 -3.2716 11.7489 23 0 232
7.9381 -4.2553 11.3304 3 0 252
7.2500 -2.3668 8.9157 14 0 241
7.5864 -3.3636 10.8465 9 0 246
9.6828 -2.3479 9.6992 8 0 247
8.6265 -2.6733 8.5396 43 0 212
6.8295 -0.9423 9.9758 10 0 245
8.2709 -3.6117 12.3509 27 0 228
7.2383 -1.0758 9.7513 11 0 244
7.6123 -1.5182 9.4414 1 0 254
7.1417 -1.6052 9.5086 15 0 240
9.4077 -1.7159 9.3480 5 0 250
7.2263 -3.5620 11.5396 55 0 200
8.1146 -2.5515 10.9513 7 0 248
9.4818 -2.7379 12.4559 7 0 248
8.2810 -3.7506 9.0441 6 0 249
8.4358 -2.8655 11.2096 4 0 251
8.4312 -2.1900 8.8624 9 0 246
6.7525 -1.3940 10.1303 4 0 251
9.5598 -1.8214 9.4467 15 0 240
8.6388 -3.5589 8.9978 8 0 247
9.8288 -2.2516 9.7712 6 0 249
8.7835 -2.0203 8.6621 6 0 249
9.4936 -2.6611 10.5707 25 0 230
6.5930 -1.5432 10.2282 2 0 253
7.4658 -3.1131 11.9534 9 0 246
8.2248 -3.7857 11.8839 33 0 222
9.1500 -3.2651 8.9592 4 0 251
7.0337 -2.9978 10.9133 2 0 253
8.1676 -1.4792 9.4529 10 0 245
8.5495 -3.1711 11.4592 1 0 254
7.9017 -1.8738 8.4068 0 0 255
7.3992 -2.5516 11.9142 2 0 253
7.5695 -3.4528 12.0430 20 0 235
8.6228 -4.0819 11.2251 12 0 243
7.8838 -2.1139 9.1837 14 0 241
8.6811 -3.0763 11.3355 7 0 248
9.4399 -2.3280 12.4808 3 0 252
6.9249 -3.5007 11.2813 3 0 252
9.8280 -2.8556 11.8086 7 0 248
9.6554 -1.9009 9.3014 4 0 251
6.3268 -2.5094 9.3750 10 0 245
8.4685 -2.6551 9.6700 2 0 253
8.5507 -2.9108 12.6918 13 0 242
9.8650 -2.3644 11.1013 16 0 239
7.6595 -1.2559 9.2365 5 0 250
8.5658 -2.7412 11.0797 1 0 254
8.4228 -4.2203 11.6368 11 0 244
7.9215 -2.0927 8.5006 17 0 238
8.6943 -2.6027 8.5831 45 0 210
7.1637 -3.4966 11.6626 5 0 250
6.6921 -1.7613 9.8900 15 0 240
8.6474 -2.1197 11.4422 4 0 251
9.4019 -3.2433 11.0883 8 0 247
9.9805 -2.7452 11.2197 6 0 249
9.2560 -2.3788 12.4552 6 0 249
10.1942 -2.3712 10.2944 14 0 241
7.9921 -2.5302 11.1023 19 0 236
7.5404 -3.1992 12.3789 13 0 242
8.0797 -2.5232 10.9648 2 0 253
6.3948 -2.4341 9.6225 7 0 248
6.5075 -2.3138 9.9262 8 0 247
9.2115 -1.7562 9.0927 3 0 252
8.6279 -3.5265 11.5472 12 0 243
8.5850 -1.8007 12.0496 14 0 241
7.8460 -1.5233 11.2621 0 0 255
7.8261 -3.9978 11.3887 65 0 190
8.3933 -3.4707 12.0082 24 0 231
7.0077 -1.7487 9.8592 9 0 246
10.1174 -2.5734 10.9643 11 0 244
6.5792 -2.4559 10.4021 20 0 235
8.3681 -2.9168 11.9678 2 0 253
9.0994 -2.2828 12.1877 10 0 245
7.9844 -3.4268 12.2555 6 0 249
9.5161 -2.5603 12.5048 6 0 249
9.9365 -2.9811 11.9066 5 0 250
7.7999 -1.8608 9.9308 6 0 249
7.9802 -2.8610 12.6179 9 0 246
8.7165 -3.5336 11.5836 5 0 250
9.3180 -3.0919 11.1128 255 0 0
8.7244 -2.4422 8.5466 20 0 235
7.8899 -2.8071 10.2993 22 0 233
7.5483 -3.2930 10.9037 24 0 231
10.0527 -3.1120 10.5794 1 0 254
9.3426 -3.0818 12.3828 8 0 247
8.5316 -3.6906 11.4317 5 0 250
7.8258 -1.2751 9.6645 19 0 236
8.4913 -1.5778 8.8658 2 0 253
9.5652 -2.1039 9.4175 20 0 235
10.1301 -2.4888 10.6834 8 0 247
7.8945 -4.2804 11.9738 11 0 244
6.8774 -2.1151 9.3434 0 0 255
8.5355 -2.5104 11.7906 0 0 255
8.4896 -3.4063 10.7347 7 0 248
7.1288 -2.0730 11.1832 1 0 254
6.8259 -1.0565 10.9462 6 0 249
9.8733 -2.6832 12.1556 3 0 252
6.9739 -1.1056 11.0297 4 0 251
8.4418 -1.7110 8.7137 1 0 254
7.8415 -1.5700 10.0572 4 0 251
6.6041 -1.2507 9.5912 5 0 250
9.2125 -3.5863 10.0078 10 0 245
7.8959 -3.6063 12.6417 10 0 245
8.6270 -3.2093 11.3748 12 0 243
9.2396 -2.7848 12.0294 82 0 173
8.5632 -3.6407 12.1698 3 0 252
6.7492 -1.5027 9.3030 5 0 250
7.5889 -2.8184 9.9095 15 0 240
9.7682 -2.5449 9.9281 18 0 237
7.5058 -2.9237 12.2192 11 0 244
7.3650 -1.8026 8.7178 10 0 245
10.1344 -2.6649 10.0060 15 0 240
6.6679 -2.0402 8.9006 12 0 243
7.6264 -2.8632 10.0760 14 0 241
8.9085 -1.7999 8.8350 16 0 239
7.5061 -1.8699 8.4914 4 0 251
8.4630 -1.7584 11.7620 2 0 253
7.5851 -2.3590 9.6008 16 0 239
9.4934 -2.1486 9.0720 35 0 220
7.8611 -0.8778 9.7693 7 0 248
8.8112 -2.4986 9.2891 22 0 233
6.5237 -2.0954 8.8614 4 0 251
8.8356 -3.7737 9.2960 0 0 255
9.3488 -3.0722 8.9485 13 0 242
9.0011 -3.6138 9.3865 5 0 250
7.8567 -3.5412 9.3308 117 0 138
9.1357 -3.8212 9.6233 3 0 252
10.1796 -2.5037 11.3822 5 0 250
7.1369 -1.1221 11.1179 4 0 251
6.3029 -2.1721 9.4347 9 0 246
7.5016 -0.8848 9.3897 16 0 239
8.5941 -3.5199 11.6093 24 0 231
6.7422 -2.8815 9.8735 1 0 254
7.7707 -1.3664 10.8023 4 0 251
10.1037 -2.4997 11.5696 23 0 232
8.1849 -1.9034 8.6263 3 0 252
7.1100 -3.6120 11.4589 10 0 245
8.0621 -2.6409 11.3496 10 0 245
6.6140 -2.1767 10.0834 4 0 251
6.6303 -2.5652 9.7308 5 0 250
9.3867 -2.8165 9.1534 10 0 245
7.0241 -0.7929 9.7657 7 0 248
7.4784 -0.9018 10.0128 20 0 235
9.8836 -2.8312 9.9211 17 0 238
7.8401 -4.4515 11.6035 56 0 199
8.8425 -2.5004 11.4747 13 0 242
7.8835 -4.4038 11.8564 6 0 249
7.3016 -1.6642 9.7298 10 0 245
9.7478 -2.4554 9.9007 13 0 242
6.9795 -0.8731 9.7666 14 0 241
7.9831 -2.3085 11.2639 13 0 242
6.9856 -2.9627 10.4492 0 0 255
9.9770 -2.4078 11.9289 3 0 252
9.0577 -2.7317 12.1550 12 0 243
7.6467 -3.3452 12.5744 12 0 243
7.0472 -1.3157 10.9556 5 0 250
6.7438 -2.8826 10.0556 29 0 226
8.7452 -1.7690 12.4071 8 0 247
7.6915 -3.2939 10.4138 17 0 238
10.2525 -2.5271 10.4128 3 0 252
6.7617 -1.6234 9.5318 25 0 230
6.5081 -1.7078 9.0960 6 0 249
9.3554 -1.7170 10.0461 8 0 247
7.7238 -4.1614 11.9538 6 0 249
8.5504 -3.5968 8.9400 15 0 240
6.7088 -1.8204 11.0108 3 0 252
8.2295 -1.4204 9.0615 4 0 251
8.5488 -4.1614 11.7252 5 0 250
8.4380 -1.9856 12.5237 9 0 246
6.5104 -2.5101 9.3561 8 0 247
7.7306 -4.1706 12.0919 7 0 248
9.8038 -2.6359 9.5128 9 0 246
9.0303 -2.2412 12.6407 1 0 254
8.4216 -2.2207 9.8407 5 0 250
6.2636 -2.2916 9.1374 4 0 251
7.3662 -0.8144 10.2308 8 0 247
6.8773 -0.9866 9.9917 20 0 235
7.7070 -2.7397 12.2580 7 0 248
7.8008 -4.3505 11.9178 11 0 244
7.0228 -2.0230 8.4947 11 0 244
6.7429 -1.6309 10.9873 10 0 245
10.1797 -2.4641 9.8088 17 0 238
9.3423 -2.4074 11.3188 12 0 243
9.0267 -3.3435 8.9730 7 0 248
7.9296 -2.4796 10.8799 10 0 245
7.7687 -0.7458 9.6222 10 0 245
7.5209 -3.5992 12.3736 7 0 248
9.0364 -1.7197 9.0818 18 0 237
8.3221 -4.1049 11.3781 22 0 233
8.9038 -3.7621 9.4946 7 0 248
8.1724 -3.2886 9.9222 1 0 254
7.4283 -2.6437 11.9876 10 0 245
9.7592 -2.0575 9.4688 23 0 232
8.0096 -3.5111 12.5187 3 0 252
10.0266 -2.2461 10.2198 3 0 252
7.8641 -1.8892 11.0032 2 0 253
8.6139 -3.4688 11.4523 5 0 250
9.1781 -1.8088 12.3631 3 0 252
6.3636 -2.8724 9.6346 21 0 234
8.5548 -3.7868 12.1321 6 0 249
7.3326 -2.0242 9.6478 4 0 251
9.4772 -1.7188 9.5755 15 0 240
6.8177 -1.9632 8.4372 13 0 242
6.8942 -2.6609 9.6862 3 0 252
9.4643 -1.7217 9.2764 6 0 249
8.2127 -1.7358 10.2327 7 0 248
6.3962 -2.0246 9.6312 27 0 228
7.3577 -2.4237 9.7918 2 0 253
10.1237 -2.5743 10.4578 8 0 247
8.5759 -1.6495 11.1055 2 0 253
7.9226 -2.9454 10.8442 13 0 242
6.5368 -2.8542 10.0316 4 0 251
9.9113 -2.0836 10.1588 17 0 238
8.5707 -1.2541 10.1104 2 0 253
9.6751 -2.9265 10.1490 2 0 253
8.3974 -3.9821 12.1175 5 0 250
6.7271 -1.3355 10.2871 13 0 242
8.6457 -3.1905 8.7198 46 0 209
6.3649 -2.3172 8.9834 5 0 250
10.0202 -2.8649 10.0714 12 0 243
9.8937 -2.3366 9.5858 7 0 248
7.8639 -3.6379 9.4227 6 0 249
8.6505 -3.0487 12.7721 4 0 251
8.8223 -2.8171 12.4613 12 0 243
9.3577 -3.8980 10.6063 2 0 253
9.5237 -2.5087 9.0796 20 0 235
8.8251 -2.6160 8.5641 19 0 236
6.7908 -3.3490 10.9469 10 0 245
8.9637 -3.6824 9.7988 9 0 246
8.5222 -1.9822 12.5865 14 0 241
6.8795 -3.4694 11.1615 16 0 239
9.2424 -3.0717 12.4451 4 0 251
9.0456 -3.4359 12.2734 1 0 254
7.4237 -0.7156 9.6925 6 0 249
9.0469 -3.8730 9.6842 5 0 250
8.5867 -3.7618 9.6009 16 0 239
7.3961 -0.8869 9.2585 7 0 248
7.5208 -1.9553 8.4854 23 0 232
9.2274 -3.9118 10.0536 12 0 243
8.3903 -4.1868 11.6851 13 0 242
9.5969 -1.9284 9.3029 14 0 241
9.6001 -1.8832 10.1180 7 0 248
8.6676 -2.5233 8.5689 61 0 194
8.8697 -2.9006 11.5080 10 0 245
10.1540 -2.4110 10.9852 36 0 219
7.4699 -2.2807 8.9007 13 0 242
9.2684 -2.0996 12.4446 0 0 255
6.9106 -1.2438 9.5531 3 0 252
7.0240 -2.3982 9.9312 5 0 250
8.8739 -3.5701 12.2321 5 0 250
8.7052 -3.0606 12.3281 2 0 253
10.0878 -2.4520 9.8901 7 0 248
7.4830 -2.2244 9.0103 5 0 250
10.3196 -2.4326 10.4121 6 0 249
9.4869 -2.3619 8.9832 23 0 232
8.1961 -1.7081 11.2132 2 0 253
6.7105 -2.3565 10.2023 5 0 250
7.9051 -1.2982 9.3323 5 0 250
8.7561 -2.1919 12.3134 3 0 252
9.4085 -3.0801 9.0462 6 0 249
7.3860 -0.6120 9.8353 5 0 250
7.7556 -1.2002 10.8519 6 0 249
6.8952 -3.2625 11.1739 117 0 138
7.5068 -0.6516 9.6344 23 0 232
9.6906 -2.3110 10.4478 25 0 230
6.2493 -2.5889 9.1536 3 0 252
6.5432 -2.9907 9.9044 14 0 241
7.1376 -1.7956 9.8203 3 0 252
6.3003 -2.3779 8.8691 3 0 252
9.0252 -2.8184 10.1880 7 0 248
7.8618 -3.6019 12.0677 12 0 243
7.3394 -1.8517 8.5403 21 0 234
7.7261 -1.9374 10.7032 4 0 251
7.6501 -2.6819 9.7055 32 0 223
8.6980 -1.6761 12.2440 0 0 255
8.2922 -1.6258 10.5821 6 0 249
7.0910 -1.1925 9.5574 11 0 244
8.5308 -3.4452 10.6838 1 0 254
6.6011 -2.0695 10.0311 2 0 253
7.9835 -3.4333 12.2679 15 0 240
7.8170 -3.5568 9.8339 3 0 252
8.6560 -3.1046 12.6664 9 0 246
7.8069 -3.7777 9.5948 12 0 243
9.2737 -3.0728 10.3238 4 0 251
7.9725 -2.3917 12.4394 8 0 247
7.0849 -0.9664 9.4692 11 0 244
8.5400 -1.5929 11.0541 1 0 254
10.1958 -2.5407 10.5591 10 0 245
8.2554 -1.8576 8.6023 3 0 252
9.4821 -2.5249 12.4757 2 0 253
6.1546 -1.9354 9.1705 13 0 242
9.3965 -3.5223 9.6445 6 0 249
6.9014 -1.0377 11.0699 2 0 253
8.6165 -1.4196 9.4462 3 0 252
9.2197 -3.3674 11.2228 5 0 250
6.4629 -1.2616 10.1456 8 0 247
8.4193 -3.5900 12.4180 20 0 235
6.8561 -2.8504 9.7735 10 0 245
7.8754 -3.4415 10.5664 22 0 233
8.1863 -1.8417 8.5058 0 0 255
8.1262 -2.3189 12.3886 2 0 253
9.5060 -3.3298 10.3159 8 0 247
8.8146 -1.7734 12.4340 8 0 247
8.8878 -3.1610 12.6425 6 0 249
6.5673 -0.9036 9.9612 1 0 254
7.8201 -3.5061 10.4641 43 0 212
9.7714 -3.1602 10.1674 13 0 242
7.7930 -2.3547 10.8536 11 0 244
6.9793 -1.8851 8.3446 13 0 242
8.5145 -3.1927 12.2231 28 0 227
7.0238 -1.7003 11.3789 32 0 223
9.5029 -3.0731 10.3627 10 0 245
6.6732 -2.8181 10.0115 13 0 242
7.4201 -3.6506 9.9985 5 0 250
7.8088 -4.4158 11.7463 3 0 252
8.1938 -1.4611 11.7678 2 0 253
10.3070 -2.6007 10.8133 3 0 252
8.3825 -3.6952 9.0002 7 0 248
6.9047 -3.2974 11.8625 5 0 250
9.3166 -2.4244 9.0140 21 0 234
8.1957 -1.9794 8.7818 6 0 249
9.3322 -2.4965 10.5299 4 0 251
8.3348 -3.6500 11.8133 18 0 237
6.8663 -2.3012 9.8397 3 0 252
6.9386 -1.7415 8.9375 27 0 228
9.5908 -2.5841 12.0682 12 0 243
7.2609 -1.4554 9.5401 32 0 223
8.0223 -1.4555 11.5931 0 0 255
8.4286 -3.4124 8.8082 18 0 237
8.5334 -3.1099 12.6652 5 0 250
7.4005 -3.6241 12.4007 19 0 236
10.2080 -2.6040 11.4835 5 0 250
8.4672 -3.6762 8.9602 3 0 252
9.7626 -2.5787 10.5117 15 0 240
6.8825 -1.6754 11.2722 16 0 239
7.3908 -1.9480 8.4331 11 0 244
7.9284 -4.1082 12.2077 14 0 241
6.2470 -2.2149 8.9372 5 0 250
8.7250 -1.9009 12.5659 10 0 245
6.2471 -1.1314 10.2483 4 0 251
7.7750 -1.7670 10.1351 16 0 239
9.6514 -2.7906 12.2491 7 0 248
8.1820 -3.6934 11.7581 22 0 233
6.7270 -2.3277 9.8215 0 0 255
6.9081 -3.4009 11.9029 6 0 249
7.5019 -3.4382 12.2087 9 0 246
6.6201 -1.7226 10.2191 0 0 255
9.4831 -1.7365 9.6222 5 0 250
7.0293 -3.6247 11.4292 24 0 231
9.4265 -2.2917 12.5251 8 0 247
8.6024 -2.0330 11.4132 0 0 255
6.3867 -2.5272 9.0909 5 0 250
7.2214 -1.8126 9.4829 12 0 243
9.3958 -2.9640 11.6901 17 0 238
6.3770 -2.6910 8.9759 1 0 254
6.7660 -2.5833 8.7954 9 0 246
8.3296 -2.1981 9.0279 8 0 247
9.5129 -3.1369 11.7792 10 0 245
8.2179 -2.1501 12.4704 2 0 253
9.9584 -2.8169 11.7219 19 0 236
6.5082 -1.4137 10.3177 14 0 241
9.8786 -2.2460 10.0589 4 0 251
8.9216 -3.8308 9.4362 1 0 254
7.7772 -1.8056 10.4338 6 0 249
9.2347 -1.9311 9.7541 13 0 242
7.9986 -3.7063 12.4388 3 0 252
7.4992 -3.3731 12.4739 48 0 207
8.6569 -4.1299 11.6694 7 0 248
10.1050 -2.4510 11.1203 10 0 245
7.3205 -3.2157 11.2747 10 0 245
7.1075 -1.7846 8.9851 12 0 243
10.3495 -2.5873 10.3421 8 0 247
8.6823 -2.4978 8.5364 47 0 208
8.2902 -3.3484 10.6873 9 0 246
7.7299 -3.6331 12.1612 1 0 254
8.7417 -3.6801 12.0318 10 0 245
8.6300 -1.5019 9.0332 12 0 243
7.7790 -2.8939 12.5243 12 0 243
6.7003 -1.3126 10.1744 2 0 253
7.7167 -3.1193 12.6406 17 0 238
9.5960 -2.2413 9.7800 6 0 249
9.8803 -2.7469 10.5537 3 0 252
7.2620 -2.2287 9.3401 16 0 239
8.6197 -1.8645 12.5718 6 0 249
6.5271 -2.4906 10.7744 4 0 251
7.0347 -1.0549 10.4396 4 0 251
8.4898 -3.1792 8.7553 113 0 142
8.7874 -1.7416 12.5339 3 0 252
8.1503 -4.3232 11.8735 24 0 231
9.8796 -3.0092 11.9665 3 0 252
7.7022 -3.0193 12.6131 17 0 238
10.3298 -2.5099 10.9014 16 0 239
7.4978 -1.7214 8.5517 11 0 244
9.0117 -3.2763 10.3746 13 0 242
8.3646 -1.8558 9.8282 15 0 240
7.6210 -0.6327 9.9624 10 0 245
7.4209 -2.1838 11.7448 3 0 252
7.5898 -0.5943 9.9849 4 0 251
7.8347 -1.6005 9.7028 25 0 230
7.6178 -2.7613 12.4023 9 0 246
6.7601 -1.4386 10.8455 7 0 248
6.9213 -1.3207 9.8464 6 0 249
8.3008 -3.9123 12.2047 19 0 236
9.2285 -3.5016 9.7073 8 0 247
9.6148 -3.0907 10.9968 2 0 253
9.3892 -2.8125 9.3263 8 0 247
8.9210 -3.8470 9.3977 0 0 255
9.1062 -1.6845 9.0286 9 0 246
6.4741 -1.0649 10.0271 7 0 248
8.5813 -1.8907 9.7747 7 0 248
8.5719 -2.5666 11.2633 0 0 255
7.2531 -3.5100 10.6895 4 0 251
7.7883 -3.3478 10.1680 15 0 240
7.8641 -1.2248 10.2058 9 0 246
7.5002 -3.6241 12.2874 0 0 255
9.8938 -3.0203 9.5840 14 0 241
6.9460 -1.8096 8.4642 8 0 247
6.1385 -2.3402 9.2247 21 0 234
7.9623 -0.8851 10.1558 1 0 254
6.7238 -1.8453 8.5941 16 0 239
7.5308 -2.4651 9.7287 13 0 242
7.1927 -1.7193 8.8219 21 0 234
7.8098 -3.5074 9.3905 38 0 217
9.8706 -2.5477 12.1285 4 0 251
9.0894 -2.4884 8.8061 17 0 238
7.9797 -2.7449 10.3544 17 0 238
9.1878 -2.4525 12.5927 9 0 246
6.4480 -0.9729 10.2923 8 0 247
9.6221 -2.9885 10.0126 4 0 251
9.8546 -2.4968 9.6735 1 0 254
6.4840 -1.9332 9.1543 14 0 241
9.5210 -1.9791 12.2557 2 0 253
9.3209 -3.1146 10.4626 0 0 255
9.4223 -2.8443 8.9958 11 0 244
6.5955 -1.6778 10.9699 9 0 246
7.9578 -1.9383 12.1391 1 0 254
9.6895 -2.8789 11.3084 20 0 235
8.2682 -3.1549 11.0581 0 0 255
7.2653 -2.1661 9.7945 14 0 241
9.5963 -1.7436 9.5970 12 0 243
8.3229 -1.8090 11.3966 3 0 252
8.6129 -1.7693 12.2966 2 0 253
9.4089 -2.8700 10.7724 2 0 253
8.8649 -3.8849 11.9741 8 0 247
7.8688 -3.1585 10.9246 21 0 234
9.5169 -3.2283 9.9842 6 0 249
8.0081 -3.4100 12.7150 18 0 237
9.1335 -1.7794 12.2506 5 0 250
6.2376 -1.5703 10.6101 3 0 252
7.4989 -2.4024 11.6809 4 0 251
10.1480 -2.7010 10.1060 0 0 255
6.3042 -2.1642 9.3859 4 0 251
7.1367 -0.7331 9.5593 1 0 254
7.2181 -1.8313 8.3543 0 0 255
7.6243 -1.0357 9.2569 6 0 249
9.7150 -2.1864 9.3868 16 0 239
7.4522 -1.1096 10.0001 7 0 248
9.1316 -1.7891 9.4454 1 0 254
7.9371 -3.6769 12.7069 4 0 251
6.2965 -2.6402 9.0954 6 0 249
8.2275 -2.2406 12.4598 12 0 243
6.3236 -2.6627 9.4324 14 0 241
7.9708 -2.3090 11.4173 7 0 248
7.8287 -3.5529 9.3853 7 0 248
9.2488 -3.1263 10.3139 3 0 252
9.3913 -2.8154 12.5549 1 0 254
7.0852 -2.0498 11.1323 1 0 254
7.6744 -3.6319 9.7360 24 0 231
8.0509 -1.8949 10.5168 3 0 252
9.4463 -3.3451 11.8989 5 0 250
6.3176 -1.1881 10.3243 8 0 247
7.0669 -3.5585 11.3281 19 0 236
7.9316 -4.4111 11.7885 7 0 248
6.2959 -1.4336 10.5764 6 0 249
0 429
0 369
0 172
0 397
1 190
1 165
1 327
1 461
2 183
2 33
2 220
2 77
3 95
3 188
3 282
3 82
4 25
4 275
4 220
4 207
5 86
5 280
5 326
5 156
6 117
6 45
6 334
6 481
7 182
7 424
7 380
7 142
8 175
9 217
9 375
9 282
9 280
10 398
10 214
10 89
10 218
11 482
11 405
11 345
11 248
12 328
12 375
12 314
12 46
13 345
13 363
13 188
13 96
14 410
14 280
14 156
14 87
15 364
15 50
15 71
15 300
17 255
17 280
17 410
17 87
18 250
18 87
18 424
18 31
19 197
19 34
19 289
19 488
20 348
20 425
20 421
20 347
21 180
21 271
21 433
21 28
22 72
22 109
22 296
22 231
24 117
24 424
24 142
24 344
25 207
25 194
25 89
25 335
26 28
26 433
26 43
26 157
27 424
27 31
27 300
27 117
28 301
28 31
28 410
28 274
29 195
29 347
29 479
29 451
30 465
30 372
30 347
30 135
31 362
31 300
31 50
32 214
32 180
32 465
33 325
33 391
33 395
33 481
34 113
34 77
34 369
35 295
35 362
35 345
36 385
36 279
36 399
36 289
37 498
37 338
37 322
38 300
38 404
38 104
38 198
39 182
40 163
40 283
40 300
40 309
41 339
41 120
41 481
41 397
42 493
42 402
42 230
42 399
43 163
43 424
43 87
43 300
44 214
44 314
44 187
44 323
45 334
45 50
45 484
45 142
46 180
46 402
46 314
47 364
47 436
48 362
48 459
48 390
48 364
49 385
49 477
49 126
49 445
50 117
50 300
50 404
50 163
51 97
51 345
52 379
52 327
52 387
52 122
53 163
53 355
53 117
53 320
54 347
54 95
54 226
54 244
55 410
55 280
55 394
55 301
56 384
56 214
56 438
57 230
57 156
57 282
57 300
58 255
58 366
58 460
58 163
59 418
59 78
59 230
59 149
60 410
60 445
60 280
61 371
61 117
61 223
61 105
62 254
63 71
63 317
63 229
63 348
64 142
64 417
64 169
65 161
65 420
65 182
66 189
66 194
66 108
67 364
67 414
67 223
67 300
68 130
70 229
70 120
70 372
70 322
71 317
71 364
72 85
72 226
72 117
73 460
73 280
73 155
74 141
74 347
74 281
74 105
76 268
76 509
76 183
77 113
77 429
77 406
78 493
78 242
78 230
79 207
79 236
79 89
79 244
80 441
80 180
80 494
81 104
81 343
81 484
81 347
82 282
82 220
82 172
83 148
83 124
83 430
83 214
85 426
85 226
85 277
86 309
86 283
86 156
87 410
87 163
87 424
88 509
88 386
89 244
89 439
89 187
91 332
91 215
91 105
91 104
92 474
92 282
92 397
92 156
93 387
93 191
93 195
94 197
94 409
94 429
94 250
95 188
95 169
95 142
95 282
96 404
96 104
96 317
96 192
98 455
98 108
98 207
98 509
99 244
99 177
99 176
100 278
100 153
100 230
100 467
101 169
101 191
101 142
101 234
102 188
102 175
103 423
104 300
104 117
104 163
104 343
105 360
105 347
106 198
106 244
106 300
107 142
107 172
107 429
107 200
108 300
108 311
108 348
108 424
109 363
109 317
109 251
110 404
110 474
110 191
110 117
111 308
111 287
111 347
111 374
112 464
112 379
112 195
113 369
113 379
114 439
114 432
114 243
115 415
115 117
115 484
116 234
117 300
117 424
117 163
117 142
118 410
118 300
119 300
119 311
119 424
120 142
120 397
120 282
120 424
121 262
122 269
122 334
123 234
124 302
124 436
124 254
124 282
125 414
125 136
126 282
126 410
127 429
127 488
127 369
127 165
128 216
128 374
128 341
128 184
129 204
131 431
131 244
133 424
133 182
133 348
134 461
135 330
135 261
135 347
136 326
137 243
137 451
137 432
137 458
138 468
138 430
138 446
139 163
139 300
139 424
140 484
140 496
140 386
141 277
142 424
142 163
142 282
143 328
143 386
143 481
143 334
144 309
145 163
145 311
145 300
145 460
146 282
146 424
147 404
147 300
148 430
148 153
148 290
149 453
149 409
149 471
149 161
150 362
150 459
150 309
151 226
151 463
152 280
152 445
152 410
152 156
153 430
153 373
154 392
155 311
155 163
155 458
156 300
156 282
156 410
157 301
157 163
157 424
158 300
159 457
159 362
159 212
159 207
160 444
161 280
161 471
161 255
162 329
162 357
162 400
163 424
163 300
164 441
164 329
164 276
165 369
165 429
165 190
165 197
167 244
167 455
167 217
168 274
168 301
168 410
169 300
171 299
172 282
172 317
172 397
173 358
174 509
174 386
175 509
175 417
176 384
176 294
177 207
177 194
178 471
178 402
178 280
179 187
179 301
179 446
179 214
180 494
180 301
180 402
181 325
181 424
182 424
183 436
183 417
184 510
184 426
184 216
185 390
185 362
185 459
186 282
187 214
187 323
187 439
188 282
188 460
189 194
189 350
190 369
191 484
191 397
192 484
192 417
193 347
193 261
194 244
194 311
194 350
195 421
195 425
195 340
196 300
196 343
197 429
197 289
198 364
198 309
198 300
199 328
199 362
199 348
200 385
201 481
201 216
201 208
202 366
202 355
202 255
202 370
203 328
203 348
203 472
203 372
204 364
204 357
204 414
204 301
205 277
205 405
205 484
206 380
206 343
206 300
206 376
207 244
208 216
208 404
208 374
209 471
209 219
211 238
211 348
212 256
212 455
212 389
213 223
213 298
214 323
214 439
215 437
215 415
216 374
217 373
217 280
218 472
218 438
218 372
219 289
219 230
220 282
220 325
221 297
221 393
222 282
222 300
223 301
224 404
224 383
225 300
225 364
226 300
226 282
227 266
229 383
229 348
230 278
230 493
231 484
232 342
232 402
232 480
236 499
236 386
237 308
237 426
237 481
238 390
239 302
239 300
240 346
240 280
240 424
241 245
242 278
243 432
243 447
243 313
244 300
245 458
246 371
246 409
247 425
248 482
248 320
249 304
250 424
250 282
250 300
251 402
251 325
251 432
252 502
252 321
252 466
252 418
253 440
253 481
253 332
254 282
254 364
254 350
255 280
255 424
255 410
256 393
256 455
257 344
258 409
259 460
259 320
260 484
260 319
260 334
261 347
261 334
261 322
262 276
263 357
263 292
263 424
264 410
265 300
265 268
267 348
267 302
267 421
269 334
269 461
270 413
270 334
271 298
271 418
272 300
272 380
273 391
273 424
275 309
275 282
277 426
278 429
278 289
279 357
279 325
280 410
280 424
280 366
281 300
281 348
282 300
284 387
284 340
284 327
286 458
286 350
286 301
287 395
288 319
291 429
291 325
292 410
293 401
293 313
295 331
297 471
298 301
299 433
299 435
300 424
301 410
302 371
302 348
303 306
303 328
303 497
304 424
304 460
305 439
306 375
306 328
307 481
307 347
308 317
309 430
309 364
309 373
310 343
310 336
311 424
312 340
312 353
313 457
314 390
314 323
315 411
319 484
319 367
320 505
321 470
321 502
321 349
322 415
325 481
327 379
327 387
328 375
328 386
329 483
331 372
333 508
333 446
334 374
335 459
335 390
335 408
336 343
336 404
338 498
338 500
339 397
339 349
340 425
340 421
341 464
341 379
342 465
342 446
342 457
344 424
345 378
346 457
346 454
346 373
349 371
350 410
351 505
351 424
354 429
354 409
355 424
356 382
356 368
357 462
358 432
358 410
359 480
359 493
360 380
362 459
364 404
366 424
367 484
367 417
368 404
369 429
373 430
374 426
374 386
375 455
376 464
379 387
382 459
385 477
386 509
389 499
389 497
391 426
394 432
396 498
396 421
397 481
398 508
400 444
403 484
403 481
405 481
406 429
407 509
408 459
411 482
415 417
417 484
419 429
419 488
420 424
421 425
431 483
432 443
433 435
434 473
434 511
441 483
446 465
446 508
449 509
451 494
454 457
465 508
466 483
466 467
469 485
480 510
486 511
486 508
489 499
