ply
format ascii 1.0
element vertex 512
property float x
property float y
property float z
property uchar red
property uchar green
property uchar blue
element edge 1040
property int vertex1
property int vertex2
end_header
-5.7855 7.8421 26.7277 58 0 197
-6.2286 6.6506 25.6692 110 0 145
-5.6041 9.3375 25.4167 117 0 138
-5.9655 6.4256 23.2586 25 0 230
-3.3529 6.9679 24.7016 1 0 254
-4.5372 8.0743 25.2947 10 0 245
-4.3258 9.7780 22.6166 0 0 255
-4.5992 9.0826 25.8201 131 0 124
-5.3912 7.3094 25.1622 103 0 152
-4.1600 7.8876 22.9933 13 0 242
-5.4305 7.4446 26.9963 63 0 192
-6.7091 7.6036 24.8974 106 0 149
-6.3637 6.2386 25.5041 46 0 209
-5.4614 7.9022 23.2490 0 0 255
-6.0040 9.0507 25.9237 104 0 151
-5.6422 8.8076 25.7986 94 0 161
-6.2761 7.3291 26.1125 88 0 167
-6.2747 5.9187 25.6085 20 0 235
-4.8137 9.8262 22.9556 3 0 252
-5.0518 8.4297 26.6655 135 0 120
-5.0614 6.7328 24.5127 31 0 224
-6.3728 7.2390 23.2850 17 0 238
-5.1367 7.4932 23.5405 28 0 227
-6.1116 9.4049 24.4770 55 0 200
-6.1808 6.4052 25.6130 69 0 186
-5.1615 9.5853 23.5721 10 0 245
-4.4758 9.6493 22.9864 19 0 236
-4.1277 9.5446 24.4264 1 0 254
-5.8441 8.9505 26.4345 128 0 127
-5.9733 8.7833 26.4202 70 0 185
-4.4347 9.1705 22.5462 0 0 255
-5.1681 7.6991 23.0056 10 0 245
-5.4821 6.4997 24.3857 19 0 236
-4.7041 6.8207 25.7621 19 0 236
-4.8184 7.3302 26.9292 44 0 211
-5.2640 9.2835 22.8919 2 0 253
-6.8093 7.9439 24.2552 149 0 106
-4.5040 9.6612 23.2322 9 0 246
-5.0345 8.9195 25.6866 38 0 217
-4.7257 9.7264 25.0448 14 0 241
-5.0359 9.4475 23.6769 8 0 247
-4.4555 7.8899 23.8900 6 0 249
-5.9266 6.5197 23.1663 7 0 248
-4.4369 8.8725 23.7604 17 0 238
-5.2873 8.7952 23.9865 11 0 244
-5.4964 9.4889 25.5399 95 0 160
-5.4726 9.7924 25.1266 88 0 167
-3.9701 8.2324 23.5083 9 0 246
-3.5794 9.1029 23.3804 0 0 255
-6.1284 6.0548 24.7281 67 0 188
-6.8140 6.1225 24.7147 102 0 153
-6.4567 8.7955 25.5095 84 0 171
-4.5087 7.7756 22.9844 11 0 244
-6.0189 8.5170 26.3908 67 0 188
-5.2270 7.3139 26.9316 22 0 233
-7.0039 7.1680 24.2945 87 0 168
-4.0688 7.1652 24.5306 1 0 254
-7.0674 7.3270 25.2774 66 0 189
-5.9767 7.6981 22.9169 4 0 251
-4.4642 8.1068 22.8697 15 0 240
-5.8699 8.0527 23.7627 54 0 201
-5.9346 8.1806 26.3307 86 0 169
-5.2858 9.0617 26.2832 41 0 214
-5.2959 9.5964 25.1775 22 0 233
-4.1407 8.1808 22.8275 2 0 253
-5.9161 6.9346 25.5793 17 0 238
-6.5643 8.2089 24.8432 2 0 253
-5.5049 8.7366 23.8628 35 0 220
-3.8182 9.3114 23.0705 1 0 254
-3.8968 7.7907 23.1511 0 0 255
-4.0674 8.1949 23.8103 5 0 250
-4.5137 9.5150 22.9670 14 0 241
-5.4930 8.7086 26.5447 51 0 204
-3.7381 8.7019 22.8735 0 0 255
-4.6039 7.4142 24.1104 13 0 242
-5.6413 9.5245 24.5696 33 0 222
-6.9989 8.2223 25.0665 98 0 157
-6.8869 7.5961 25.3896 109 0 146
-4.8095 8.8846 26.3515 29 0 226
-6.4837 7.3088 23.2741 18 0 237
-6.7611 7.7512 24.1328 86 0 169
-4.4036 8.8213 24.2230 21 0 234
-6.8937 6.2170 24.3397 59 0 196
-6.4204 6.2408 25.9807 16 0 239
-6.6818 6.2801 24.9384 200 0 55
-6.7700 7.7836 24.9925 223 0 32
-4.6106 7.6549 24.1231 7 0 248
-4.9754 8.5628 26.4237 76 0 179
-3.7007 8.9182 22.8651 0 0 255
-5.8347 7.4462 22.6751 4 0 251
-5.0233 6.7574 25.1518 12 0 243
-5.3036 7.7830 26.9619 144 0 111
-5.7026 8.0570 26.7335 55 0 200
-6.1410 6.6770 23.1268 42 0 213
-5.0241 9.6427 23.3824 18 0 237
-5.6084 7.8298 26.3140 103 0 152
-5.8119 6.6701 23.4833 22 0 233
-3.8296 8.3739 23.7462 3 0 252
-5.1659 7.0881 26.7007 117 0 138
-3.4099 7.1200 24.4963 2 0 253
-4.7400 8.5489 23.0007 0 0 255
-4.4007 8.9585 23.1958 2 0 253
-5.7090 7.2733 25.2769 58 0 197
-4.9370 9.4993 23.8062 29 0 226
-5.8187 8.8472 24.3986 79 0 176
-6.1257 9.3549 24.8294 119 0 136
-6.0614 7.1351 25.3993 69 0 186
-6.4388 5.8910 25.1548 97 0 158
-5.6653 9.1016 26.1803 140 0 115
-4.4336 7.2854 24.6132 7 0 248
-5.2447 8.3666 26.6953 170 0 85
-4.8106 9.7453 24.4640 13 0 242
-3.5326 8.8322 23.0528 0 0 255
-4.1594 8.2936 22.7732 2 0 253
-5.2268 6.8738 24.9603 6 0 249
-6.1010 8.3081 23.7730 76 0 179
-4.5415 8.8367 26.0516 24 0 231
-5.2452 7.5463 26.8293 73 0 182
-4.6366 9.7738 24.3234 17 0 238
-5.0802 7.6243 24.7863 22 0 233
-5.8706 6.8130 22.9279 0 0 255
-6.6606 5.9676 25.0165 27 0 228
-3.2467 7.0931 24.7235 2 0 253
-4.2786 7.7343 24.4021 1 0 254
-5.0751 8.2247 26.8092 64 0 191
-4.1239 7.5228 23.1113 5 0 250
-4.2139 9.7813 22.7230 10 0 245
-4.2145 9.5982 23.9659 4 0 251
-6.3581 6.4799 24.4867 59 0 196
-5.7053 7.1848 26.5919 131 0 124
-4.9603 7.5006 25.2517 28 0 227
-6.3905 5.9405 25.5255 116 0 139
-3.8215 8.3891 23.8451 1 0 254
-4.0155 8.1968 22.9293 0 0 255
-5.9169 6.5187 23.0933 14 0 241
-4.3136 8.0847 23.6919 24 0 231
-4.6149 7.4000 24.0908 11 0 244
-5.5205 9.0947 26.0963 67 0 188
-3.2689 7.0527 24.7882 1 0 254
-4.8669 7.4465 26.9150 36 0 219
-5.4619 9.2899 23.8630 76 0 179
-5.8566 6.0208 25.9696 53 0 202
-5.0138 8.8765 22.8478 13 0 242
-5.3371 9.3349 25.6793 33 0 222
-5.0574 9.6050 23.8240 52 0 203
-5.9936 6.6082 25.8955 3 0 252
-6.4028 5.8010 25.4252 37 0 218
-6.4933 6.7026 25.7736 81 0 174
-4.2495 9.6938 23.0356 5 0 250
-5.2203 7.6824 26.6992 28 0 227
-6.3422 5.8339 25.3099 48 0 207
-3.7708 8.6993 24.4602 12 0 243
-5.2964 7.9322 26.6798 94 0 161
-6.8992 8.1024 24.6409 76 0 179
-6.5720 7.9472 25.1434 103 0 152
-6.2370 7.8570 26.0251 77 0 178
-6.1842 7.7185 25.4889 88 0 167
-4.6433 8.3277 26.2990 29 0 226
-6.0786 8.9936 23.8364 16 0 239
-6.6806 7.8185 24.6122 26 0 229
-4.8360 8.7334 23.9664 42 0 213
-4.3778 9.2322 23.6836 14 0 241
-5.1320 6.5315 24.4917 9 0 246
-6.1656 7.6662 22.9115 9 0 246
-5.4836 9.9274 24.6441 26 0 229
-4.9993 7.8933 24.3186 51 0 204
-6.7212 7.7889 24.0393 42 0 213
-5.2926 7.4594 23.0284 0 0 255
-4.3328 9.7049 22.7114 1 0 254
-4.2789 7.9368 24.7247 25 0 230
-4.8076 9.8170 23.1190 14 0 241
-4.4758 9.3461 25.5164 80 0 175
-3.8089 9.1693 22.8054 0 0 255
-6.7073 8.3034 24.2908 67 0 188
-4.9615 9.8438 23.3568 28 0 227
-7.0643 6.5856 25.0128 28 0 227
-4.8057 9.7869 24.4257 13 0 242
-5.4167 7.7782 23.1513 4 0 251
-5.8809 6.6358 22.8592 3 0 252
-5.7363 9.5391 23.9372 28 0 227
-3.2994 7.0394 24.6856 0 0 255
-4.6253 9.8176 24.0672 39 0 216
-5.8753 6.3035 26.2778 103 0 152
-4.7100 9.6726 23.4002 29 0 226
-5.1988 6.8343 24.9502 24 0 231
-3.7558 8.2592 24.3100 0 0 255
-5.4951 9.6209 25.2431 80 0 175
-4.5717 9.6727 23.1825 20 0 235
-5.1693 8.9581 23.1221 63 0 192
-4.4898 9.6406 22.5341 0 0 255
-6.2214 6.0071 24.9910 15 0 240
-6.7194 8.8445 24.5676 37 0 218
-6.0270 6.6377 25.9455 27 0 228
-7.3091 7.2758 25.2353 48 0 207
-6.8075 7.2742 25.8372 87 0 168
-5.5221 9.0631 26.3016 66 0 189
-4.2934 9.1239 24.1713 3 0 252
-5.8001 8.6473 26.6215 108 0 147
-6.5070 6.6883 24.9116 98 0 157
-6.4541 6.3588 24.3745 26 0 229
-6.1108 7.5623 22.9395 10 0 245
-4.4651 7.1127 24.4856 12 0 243
-6.8985 6.0971 24.6829 83 0 172
-4.7145 7.8540 24.8952 17 0 238
-6.5577 7.2125 26.0113 44 0 211
-5.6737 8.6549 26.0794 42 0 213
-6.9350 7.6030 25.5601 96 0 159
-6.1113 8.9917 25.6003 76 0 179
-6.5745 6.4959 25.5801 73 0 182
-4.5014 9.8189 23.2992 8 0 247
-5.2293 9.6217 23.8299 32 0 223
-7.3003 7.3803 25.0457 66 0 189
-4.1651 8.7726 23.8244 15 0 240
-4.1792 6.9734 25.5344 13 0 242
-6.3329 8.6549 24.6140 116 0 139
-6.9801 6.3914 24.4132 41 0 214
-4.8582 7.8925 25.8023 14 0 241
-6.0886 7.5610 25.4114 85 0 170
-3.2578 7.0551 24.7352 0 0 255
-5.0975 7.8848 26.3323 43 0 212
-7.2603 7.1585 25.2802 88 0 167
-3.7266 8.6060 22.7965 0 0 255
-6.0809 8.7462 26.2682 66 0 189
-5.6368 9.6107 24.4204 73 0 182
-3.7449 9.1294 23.2534 1 0 254
-5.3220 6.5382 24.8166 23 0 232
-6.5806 7.1816 25.4619 125 0 130
-5.2881 9.8722 24.8997 48 0 207
-4.9743 9.1793 25.8984 49 0 206
-4.6722 6.7487 25.9236 14 0 241
-5.6016 8.8178 23.9237 54 0 201
-5.0845 9.3927 25.6253 99 0 156
-5.9952 6.9253 23.0649 30 0 225
-7.0130 6.8160 24.6786 63 0 192
-4.9901 8.8525 22.8009 0 0 255
-7.1527 7.6407 24.8812 37 0 218
-4.6077 8.2329 23.7219 2 0 253
-5.4984 9.3646 23.9803 22 0 233
-4.8126 8.8392 25.9794 47 0 208
-6.5573 6.1097 25.6357 97 0 158
-7.1519 6.7335 24.3894 42 0 213
-4.9452 8.1560 26.8113 59 0 196
-6.8646 7.3220 23.9826 62 0 193
-6.3225 9.0057 23.8530 44 0 211
-5.6037 9.7843 24.6386 36 0 219
-4.1432 9.0365 24.1882 36 0 219
-6.8467 6.9351 24.0315 89 0 166
-6.7022 6.4576 25.6361 58 0 197
-4.4981 8.8979 23.8287 32 0 223
-5.9915 7.6717 22.8450 0 0 255
-4.8190 7.8842 26.4582 22 0 233
-7.0831 6.5311 24.1740 24 0 231
-6.2560 6.1727 26.1324 21 0 234
-4.5604 7.8626 23.4452 5 0 250
-3.8123 7.1342 23.6288 1 0 254
-5.5084 7.6328 24.9246 57 0 198
-5.1267 6.5945 24.5921 5 0 250
-6.5119 6.4211 24.7933 53 0 202
-6.9491 7.4361 24.0956 57 0 198
-4.0183 8.1179 23.1674 0 0 255
-6.4223 6.3887 24.5699 71 0 184
-5.3802 9.9014 24.8515 12 0 243
-5.8574 7.8291 22.8545 9 0 246
-4.5794 9.7388 23.1153 18 0 237
-5.4639 9.1599 26.1975 118 0 137
-4.2051 7.9756 24.4149 10 0 245
-4.4882 9.6147 22.6353 0 0 255
-5.0057 8.5115 22.8559 12 0 243
-5.5251 9.1896 25.3410 120 0 135
-4.6685 8.5204 22.8541 8 0 247
-6.4415 7.9303 25.4634 141 0 114
-4.0694 9.2250 25.2511 32 0 223
-3.7453 8.4061 24.5297 2 0 253
-6.6242 6.3435 25.8253 54 0 201
-5.1776 6.7943 26.5503 14 0 241
-5.9628 9.5758 24.5958 52 0 203
-5.8612 6.4315 26.3774 112 0 143
-5.4114 7.1002 26.7147 45 0 210
-4.2054 8.0823 22.8033 0 0 255
-4.0256 9.1372 25.1837 37 0 218
-6.1735 9.0500 23.7355 26 0 229
-4.1218 8.1282 23.1431 0 0 255
-5.6120 6.4018 26.4796 38 0 217
-6.1104 6.7855 22.9784 18 0 237
-4.5225 7.8586 24.1495 27 0 228
-6.0923 7.0597 22.8661 8 0 247
-5.5246 8.9957 26.3976 88 0 167
-4.4411 8.5174 24.1563 42 0 213
-5.0582 6.3467 26.0049 3 0 252
-4.0873 9.2602 25.4096 36 0 219
-5.9774 8.5950 26.6243 97 0 158
-4.1690 9.4411 23.5163 6 0 249
-4.3858 9.5080 25.4644 40 0 215
-5.0030 7.7596 26.6386 26 0 229
-5.3845 8.6465 26.7531 83 0 172
-6.1795 9.1634 25.6513 87 0 168
-6.0901 8.6602 24.2717 44 0 211
-5.7814 9.4914 24.8841 167 0 88
-6.5734 6.4895 25.4628 139 0 116
-5.7656 8.9256 23.9104 24 0 231
-5.3813 7.5400 26.8456 35 0 220
-6.2645 6.8555 25.9295 180 0 75
-6.4003 6.6519 24.4139 86 0 169
-5.7587 8.3343 26.6050 255 0 0
-6.8442 7.5674 24.5124 48 0 207
-7.1242 7.3996 24.5087 103 0 152
-4.8214 9.2621 23.0409 22 0 233
-5.7364 9.3429 25.5511 172 0 83
-6.1882 8.5165 25.8537 67 0 188
-6.0169 6.6705 23.0353 21 0 234
-4.5318 9.2862 24.0835 43 0 212
-5.3044 7.8747 26.6401 127 0 128
-6.1791 7.2353 23.1016 26 0 229
-4.3396 8.9091 24.0246 9 0 246
-5.0390 8.9645 23.0016 22 0 233
-6.0765 8.3541 25.7954 123 0 132
-4.9915 8.8224 26.5154 20 0 235
-6.1064 5.8617 25.0364 78 0 177
-4.8752 8.6306 24.2196 27 0 228
-3.8840 7.5475 23.2637 0 0 255
-6.3272 7.1859 25.6590 130 0 125
-6.0377 6.2282 25.9173 144 0 111
-7.3055 8.0718 24.9333 53 0 202
-4.9247 8.6526 23.6752 29 0 226
-5.7901 9.6881 24.6543 69 0 186
-5.0840 6.5750 24.4226 4 0 251
-6.8529 8.1059 24.7143 12 0 243
-5.8724 9.5589 24.3183 47 0 208
-7.0986 7.5764 24.6488 112 0 143
-6.0752 8.8874 26.2138 47 0 208
-6.8338 7.8925 24.2201 152 0 103
-3.5335 6.9130 24.8386 4 0 251
-4.2650 9.7691 22.6412 6 0 249
-4.2068 9.5229 22.9767 0 0 255
-6.3382 7.9035 25.2374 37 0 218
-4.8908 7.5636 23.3880 15 0 240
-3.7745 8.6161 22.9941 2 0 253
-4.9767 7.6822 26.4137 82 0 173
-7.0717 7.5701 24.8014 70 0 185
-4.8862 7.6922 26.8728 49 0 206
-5.3552 7.4829 25.2414 11 0 244
-6.9433 7.6458 25.2855 114 0 141
-4.3452 8.2438 23.9873 33 0 222
-5.7377 6.0447 26.1029 3 0 252
-5.8525 7.3307 26.6554 126 0 129
-5.1389 6.5334 24.5144 15 0 240
-4.8357 7.8081 25.7953 3 0 252
-6.9940 6.6919 24.2956 8 0 247
-5.3382 7.7899 23.0791 0 0 255
-6.4774 8.3949 24.6111 77 0 178
-4.7867 7.4551 26.2843 49 0 206
-6.0368 6.6371 26.0963 111 0 144
-5.3917 7.6287 26.9056 163 0 92
-5.4858 8.1856 23.8688 14 0 241
-4.3809 8.8997 23.6191 7 0 248
-4.7470 9.8483 24.7068 5 0 250
-4.5545 7.7484 25.9514 26 0 229
-6.1231 9.2382 24.2524 116 0 139
-5.3575 6.6349 26.5962 69 0 186
-7.1347 6.4358 24.1859 64 0 191
-3.4177 8.2497 24.7320 1 0 254
-6.0127 7.4749 24.5986 36 0 219
-5.9357 6.7515 22.8669 3 0 252
-4.3647 9.3840 23.0810 1 0 254
-4.7986 7.6709 24.4081 31 0 224
-5.1811 7.7111 23.3700 5 0 250
-6.2027 7.2266 25.6455 107 0 148
-3.7400 8.8008 24.8183 9 0 246
-6.0822 7.6645 24.1270 59 0 196
-6.6039 6.5931 24.9371 109 0 146
-6.0938 7.1680 23.6649 26 0 229
-5.0255 7.5345 25.1455 75 0 180
-6.4785 6.6146 24.7731 114 0 141
-4.7463 8.3677 24.0745 22 0 233
-4.6865 8.0395 24.9770 17 0 238
-6.0347 7.5457 25.5175 155 0 100
-5.0430 9.2604 23.9089 64 0 191
-6.0502 8.9192 26.0735 149 0 106
-4.4026 8.1079 24.2970 38 0 217
-7.3497 7.5572 24.9900 86 0 169
-6.2993 5.7253 25.4578 24 0 231
-4.3718 8.3984 25.6606 23 0 232
-4.8983 8.2671 22.7853 1 0 254
-3.8984 7.5438 23.2265 0 0 255
-3.7057 9.0710 23.0732 0 0 255
-4.6914 8.0059 23.5522 37 0 218
-6.2791 5.7131 25.4250 88 0 167
-4.7339 9.1791 23.5743 32 0 223
-6.4727 8.7593 23.9734 46 0 209
-3.3339 8.1556 24.6213 0 0 255
-3.7590 9.3566 23.4383 0 0 255
-5.3069 7.6141 26.7359 71 0 184
-4.7508 9.1694 22.6577 0 0 255
-5.2950 9.1120 26.2814 87 0 168
-7.0006 7.3817 24.1328 79 0 176
-5.9306 6.5790 23.3961 24 0 231
-4.2039 8.4130 24.1887 2 0 253
-6.1176 8.4963 26.3067 145 0 110
-5.3730 9.1336 22.8230 0 0 255
-3.9520 7.4066 23.1759 0 0 255
-6.1249 7.6048 22.9450 36 0 219
-6.1293 5.8411 25.8125 81 0 174
-6.7271 7.9647 24.3213 71 0 184
-5.5731 9.7781 24.0033 36 0 219
-4.6418 7.6614 25.8170 7 0 248
-6.0656 5.8059 24.8869 46 0 209
-3.9435 8.7146 23.9207 5 0 250
-5.7220 7.7675 26.7623 133 0 122
-7.0456 6.3770 24.2927 32 0 223
-3.8952 8.5376 25.3814 6 0 249
-4.2193 9.6034 22.7647 4 0 251
-6.3865 6.2385 24.8271 101 0 154
-5.6578 6.3494 26.3488 91 0 164
-5.7404 6.4051 24.2251 44 0 211
-5.4103 7.0929 26.7330 107 0 148
-4.8526 8.7269 23.6466 9 0 246
-3.7637 8.8940 24.3225 8 0 247
-5.1507 6.7756 24.8570 47 0 208
-3.6430 9.0700 23.8257 1 0 254
-6.4107 8.7555 24.0984 93 0 162
-5.2562 9.6133 25.0362 43 0 212
-3.7331 8.7494 25.0532 6 0 249
-6.0421 7.7456 26.4131 232 0 23
-3.2495 7.0828 24.7720 0 0 255
-6.6856 7.3150 25.2964 116 0 139
-4.9252 9.5316 23.5662 15 0 240
-4.0371 9.0984 25.5666 13 0 242
-5.1724 8.6696 26.1797 69 0 186
-5.9730 7.1809 22.6838 3 0 252
-6.8928 7.7854 25.4116 112 0 143
-3.6866 8.9441 23.0956 0 0 255
-5.9435 9.2986 25.7754 89 0 166
-6.0560 9.3086 25.6735 31 0 224
-5.0701 9.8000 24.6167 24 0 231
-4.1142 9.1056 24.2833 8 0 247
-4.4710 8.7800 25.9259 0 0 255
-7.0142 6.6351 23.9938 35 0 220
-4.7808 7.6542 24.7593 62 0 193
-4.4599 8.1773 23.9150 5 0 250
-6.4734 8.7211 24.0557 114 0 141
-5.0314 9.7060 23.3228 5 0 250
-5.1144 7.3970 26.0483 50 0 205
-6.3799 8.7894 23.5971 47 0 208
-6.2119 9.3328 24.4863 104 0 151
-3.7672 8.6273 24.6573 21 0 234
-5.3202 7.2808 25.7671 45 0 210
-5.2339 8.7113 26.6243 91 0 164
-3.8550 8.1142 25.4664 13 0 242
-4.7511 6.9682 25.8340 35 0 220
-4.4543 7.7620 23.4068 11 0 244
-7.0108 7.4965 25.1098 105 0 150
-5.0288 8.6019 26.2723 54 0 201
-7.0021 7.7000 24.9526 160 0 95
-6.5947 8.6555 24.3725 128 0 127
-6.3420 6.8086 25.5660 94 0 161
-5.0292 9.1540 26.2492 83 0 172
-5.5627 6.5578 26.6006 58 0 197
-5.2226 6.6956 24.8231 43 0 212
-4.7610 7.5582 26.9725 3 0 252
-6.3378 9.1189 24.0701 68 0 187
-6.2440 5.7884 25.0444 115 0 140
-5.2816 8.4215 26.6741 173 0 82
-4.5017 7.9198 22.9856 11 0 244
-5.9456 8.9040 26.4235 115 0 140
-4.8526 7.8335 26.5275 49 0 206
-6.6562 8.2846 24.3940 104 0 151
-6.6927 8.7291 24.4794 21 0 234
-4.9213 9.1898 22.7406 12 0 243
-4.8636 8.1761 22.8953 4 0 251
-7.2346 7.8896 24.9977 110 0 145
-5.0591 8.4913 26.7599 133 0 122
-3.2116 7.2102 24.5304 0 0 255
-5.9628 6.5854 23.6941 27 0 228
-6.9820 6.3434 24.5785 53 0 202
-3.9120 8.4562 24.5820 2 0 253
-4.7185 8.5290 26.2191 40 0 215
-3.1730 7.1396 24.7296 0 0 255
-6.1261 7.6144 23.0056 13 0 242
-5.9330 6.5241 23.0550 17 0 238
-5.6821 8.4367 26.2265 77 0 178
-6.5739 8.9431 24.0449 40 0 215
-6.4783 6.2086 25.8042 139 0 116
-3.9370 9.0142 24.3642 1 0 254
-5.4438 7.3801 27.0725 52 0 203
-6.1154 8.0885 25.7313 133 0 122
-6.7220 8.0718 25.0571 54 0 201
-5.6799 6.2243 24.7726 1 0 254
-4.1170 9.1736 24.8845 28 0 227
-5.4529 9.9124 24.8464 30 0 225
-4.2331 9.2319 25.7827 56 0 199
-5.0029 7.6233 25.5037 8 0 247
-5.6861 9.5725 23.8297 4 0 251
-5.2329 6.3469 25.4718 30 0 225
-6.9791 7.6462 24.4001 168 0 87
-4.6882 8.4410 23.7519 1 0 254
-4.1700 8.4465 22.9359 0 0 255
-6.8720 7.8840 24.1902 45 0 210
-4.7380 7.4741 27.0346 19 0 236
-5.8665 8.7233 26.5839 188 0 67
-3.5038 6.8767 24.7962 2 0 253
-6.4863 5.9219 24.8184 56 0 199
-3.9835 9.5800 22.6707 0 0 255
-4.4497 8.5933 23.9567 7 0 248
-7.0589 6.4531 24.2820 48 0 207
-7.2306 7.6750 25.0402 162 0 93
-4.6091 9.6650 24.8082 9 0 246
-4.5461 9.8124 24.3809 4 0 251
-5.5024 8.5007 23.2137 30 0 225
-4.9208 9.3332 25.6673 92 0 163
-6.1917 7.1170 22.9957 17 0 238
-4.5293 9.3264 22.4973 3 0 252
-4.7286 7.4769 27.0386 17 0 238
0 407
0 422
0 352
0 344
1 301
1 226
1 375
1 84
2 307
2 297
2 463
2 377
3 309
3 405
3 413
3 500
4 122
4 499
4 99
4 282
5 381
5 374
5 299
5 130
6 332
6 148
6 168
6 18
7 508
7 470
7 446
8 454
8 371
8 301
8 102
9 52
9 96
9 31
9 449
10 352
10 344
10 91
10 407
11 341
11 270
11 85
11 493
12 131
12 84
12 481
13 177
13 267
13 136
13 58
14 295
14 53
14 431
14 76
15 422
15 307
15 108
15 137
16 422
16 454
16 303
16 301
17 182
17 131
17 401
17 107
18 170
18 168
18 506
18 183
19 461
19 470
19 303
19 110
20 364
20 22
20 417
20 413
21 246
21 199
21 436
21 509
22 302
22 60
22 385
22 128
23 443
23 223
23 297
23 357
24 411
24 321
25 94
25 144
25 188
25 275
26 187
26 263
26 161
26 306
27 291
27 506
27 118
27 271
28 463
28 498
28 197
28 53
29 222
29 377
29 463
30 510
30 410
30 332
30 428
31 335
31 400
31 96
32 457
32 413
32 49
32 130
33 448
33 492
33 441
33 229
34 98
34 139
34 358
34 352
35 262
35 94
35 158
36 330
36 465
36 493
36 85
37 187
37 161
37 209
38 205
38 228
38 479
38 186
39 227
39 505
39 475
39 186
40 160
40 425
40 94
40 144
41 342
41 417
41 385
41 284
42 309
42 134
42 478
43 387
43 342
43 248
43 437
44 296
44 287
44 67
44 248
45 307
45 108
45 297
45 264
46 297
46 227
46 307
47 135
47 462
47 70
47 196
48 127
48 68
48 367
49 481
49 84
49 321
49 454
50 84
50 202
50 239
50 503
51 295
51 105
51 429
51 485
52 335
52 96
53 498
53 303
53 463
53 407
54 98
54 414
54 91
55 493
55 394
56 201
56 492
56 109
57 226
57 220
57 197
57 328
58 163
58 177
58 251
59 462
59 135
60 368
60 419
60 115
61 422
61 303
61 397
62 137
62 72
62 87
62 235
63 420
63 231
63 508
63 268
64 113
64 462
65 106
65 192
65 441
65 437
66 326
66 229
66 440
67 230
67 160
67 104
67 296
68 291
68 118
68 374
68 444
70 385
70 287
70 135
70 438
71 306
71 183
71 188
71 263
72 87
72 286
72 264
72 197
73 113
73 112
74 136
74 335
74 457
74 378
75 297
75 223
75 307
75 443
76 469
76 504
76 429
77 452
77 422
77 424
77 504
78 455
78 451
78 137
78 87
79 436
79 442
79 166
79 80
80 330
80 465
80 328
81 508
81 160
81 287
82 503
82 359
82 215
83 481
83 194
83 276
83 273
84 369
84 473
84 372
85 270
85 226
85 493
85 424
86 378
86 160
86 130
86 387
87 264
87 137
87 441
87 393
88 172
89 428
89 306
89 285
90 457
90 417
90 141
90 350
91 352
91 303
91 461
91 197
92 422
92 303
92 197
93 309
93 500
93 312
94 174
94 188
94 183
94 144
95 152
95 484
95 311
95 315
96 413
96 370
96 472
96 312
97 135
97 279
98 414
98 129
98 352
99 499
99 331
99 447
100 267
100 354
100 196
100 269
101 468
101 354
101 444
102 454
102 424
102 372
103 144
103 140
103 387
104 268
104 297
104 307
104 465
105 443
105 297
105 357
105 307
106 147
106 375
106 450
106 153
107 460
107 411
108 264
108 397
108 303
108 498
109 201
109 492
109 130
109 316
110 303
110 461
110 422
111 310
111 420
112 477
112 374
113 462
113 269
114 457
114 417
114 375
115 439
115 419
116 241
116 451
117 352
117 391
117 407
117 344
118 176
118 310
118 181
119 371
119 165
119 287
121 202
121 500
122 381
122 447
122 213
123 265
123 404
123 135
124 470
124 461
124 352
125 449
125 284
125 395
126 170
126 263
126 174
127 505
127 403
128 260
128 411
128 372
129 422
129 414
129 276
129 352
130 445
130 371
130 349
130 441
131 481
131 321
131 454
132 416
132 409
133 278
134 478
134 309
135 385
135 253
135 364
136 201
136 335
137 453
137 264
138 213
138 448
138 193
138 492
139 339
140 223
140 376
140 419
140 357
141 401
141 412
141 358
141 182
142 188
142 400
142 314
142 306
143 264
143 186
143 228
144 376
144 324
144 223
145 351
145 339
145 417
146 150
146 208
146 298
147 481
147 239
147 450
148 187
148 209
148 168
149 337
149 311
149 352
149 391
150 454
150 317
151 245
151 444
151 161
151 416
152 311
152 303
152 461
153 450
153 453
153 465
154 270
154 226
155 270
155 303
155 320
155 308
156 484
156 270
156 217
157 475
157 391
157 446
157 470
158 243
158 469
159 270
159 341
160 318
160 287
161 245
161 183
161 187
161 248
162 325
162 345
162 256
163 400
163 507
163 188
164 403
164 191
164 244
164 227
165 368
165 255
165 371
166 304
166 465
166 330
167 232
167 365
167 267
167 253
168 170
168 410
169 437
169 378
169 356
169 371
170 183
170 174
171 508
171 231
171 420
172 501
172 384
172 336
173 465
173 330
174 403
174 191
175 473
175 220
175 194
175 211
176 310
176 228
176 227
177 368
177 507
178 362
178 478
178 285
179 243
179 186
179 237
179 338
180 331
181 310
182 401
182 276
182 321
182 412
183 210
184 457
184 417
184 217
186 264
186 307
187 263
188 507
188 376
190 412
190 215
190 473
191 453
191 211
192 301
193 379
193 338
193 220
193 211
194 206
194 341
195 264
195 294
195 397
196 245
196 487
196 310
197 303
197 498
197 422
197 397
198 369
198 257
199 246
199 503
200 400
200 232
200 312
200 262
201 492
201 457
202 503
202 239
202 450
203 374
203 437
203 277
204 454
205 479
206 341
206 429
206 504
207 308
207 297
208 298
208 226
208 341
209 263
210 433
210 223
211 220
211 379
211 328
212 248
212 385
212 376
212 387
213 448
213 381
213 229
214 465
214 307
214 270
215 473
215 503
216 490
216 219
216 427
216 451
217 484
217 375
217 320
218 423
219 337
219 311
220 379
222 377
222 484
222 463
223 297
223 324
223 443
224 416
224 406
224 291
225 457
225 351
225 321
226 424
226 320
226 422
227 324
227 297
227 244
228 264
228 393
228 238
229 448
230 357
230 419
230 376
231 508
231 427
231 268
231 431
232 312
232 309
233 473
233 493
234 267
234 467
234 314
235 450
236 373
236 253
237 376
237 243
238 264
238 393
239 481
240 473
240 503
240 305
241 461
242 394
242 493
242 330
243 480
243 357
243 258
243 469
244 297
244 443
244 324
245 487
245 279
246 493
246 503
246 330
247 298
248 310
248 287
248 376
250 391
250 337
251 503
251 359
251 436
252 456
252 276
253 385
253 335
254 492
254 274
254 405
255 368
257 298
257 369
258 503
258 493
258 452
260 372
260 411
261 324
261 433
262 477
262 507
262 312
262 400
263 306
264 303
264 307
264 286
265 378
265 342
265 444
266 410
267 314
267 370
267 335
268 377
268 307
268 297
268 315
269 306
269 507
270 429
270 397
270 315
271 289
271 279
272 356
272 447
272 373
273 481
273 276
274 358
274 475
274 381
275 443
275 357
275 297
276 412
276 481
276 321
277 414
277 437
278 462
278 370
279 289
279 487
280 442
281 410
282 456
282 358
283 309
283 285
284 342
284 437
284 385
284 378
285 309
285 509
286 303
287 378
287 387
288 405
289 489
290 498
290 463
290 303
292 489
292 433
293 337
293 464
294 498
294 303
294 470
294 446
295 377
296 453
296 465
296 349
297 307
297 443
297 377
298 301
298 351
298 369
299 349
300 352
300 391
300 311
300 407
301 422
301 320
302 369
303 407
303 422
303 498
303 397
304 372
304 341
304 328
305 429
305 341
306 314
307 377
308 397
308 461
308 315
309 395
309 405
310 376
310 420
311 352
311 407
312 400
312 394
313 434
313 354
313 318
313 353
314 387
315 484
315 397
317 321
317 460
320 424
321 351
321 481
322 379
322 469
323 387
323 376
324 443
325 345
326 450
327 453
328 330
328 504
329 377
329 463
330 465
330 493
332 410
333 363
333 410
335 385
335 368
336 495
337 352
338 452
338 450
338 493
340 349
340 457
341 429
341 504
342 437
342 387
343 401
343 412
344 407
344 351
344 352
346 373
347 503
349 453
349 465
349 452
350 414
350 356
352 407
352 422
353 385
354 415
356 371
357 443
357 419
358 412
358 391
359 503
360 444
360 381
360 447
360 367
361 493
361 368
362 509
364 385
364 484
365 462
366 375
367 444
367 381
367 505
368 493
371 375
371 422
372 424
374 437
375 422
377 463
377 484
378 451
379 504
379 493
380 386
380 401
381 475
381 448
382 462
384 495
386 460
386 401
388 439
388 443
388 480
389 444
391 407
393 498
394 493
395 405
395 500
397 422
400 507
400 442
402 419
402 439
404 417
405 500
405 460
407 422
407 498
408 503
408 473
409 464
413 457
416 444
417 457
418 506
418 426
419 439
421 426
421 444
424 452
426 489
426 511
427 461
428 509
429 504
435 464
435 444
436 503
441 450
442 459
443 453
445 450
446 470
446 498
450 452
451 461
452 493
452 504
452 465
453 465
453 504
455 470
458 497
461 470
463 498
469 504
475 479
494 502
497 511
