ply
format ascii 1.0
element vertex 512
property float x
property float y
property float z
property uchar red
property uchar green
property uchar blue
element edge 884
property int vertex1
property int vertex2
end_header
-1.7175 -2.3588 -3.5748 54 0 201
-1.6402 -2.6726 -2.9479 9 0 246
-0.3766 -2.7573 -2.0011 7 0 248
-1.4810 0.1062 -1.7795 81 0 174
0.3428 -4.3131 0.6678 1 0 254
-1.9412 -2.0183 -3.4170 8 0 247
0.4822 -4.1903 0.6797 2 0 253
-1.5967 -1.2760 -3.0056 33 0 222
1.4886 -3.7531 -1.2066 192 0 63
-2.4338 -3.9514 -1.2627 0 0 255
-2.1842 -0.4094 -2.6502 0 0 255
-2.0960 -1.2975 -2.6588 10 0 245
-2.3855 -1.5890 -1.0312 0 0 255
2.1970 -2.9333 0.6364 24 0 231
-0.4160 -3.8158 -2.4927 38 0 217
1.9159 -3.0109 0.5120 6 0 249
-1.4334 -4.1102 -1.7268 2 0 253
0.1884 -1.4900 -1.1415 18 0 237
0.4899 -3.4924 0.9181 7 0 248
-2.0581 -2.7981 -2.5617 19 0 236
-0.7726 -3.3450 -2.8697 16 0 239
-2.3680 -4.0276 -1.3366 0 0 255
-0.5021 -3.0547 -3.0103 12 0 243
-1.9628 -0.4675 -3.2015 13 0 242
-0.8765 -2.9924 -2.7356 37 0 218
-2.0209 -1.2426 -3.4060 4 0 251
2.5703 -2.6504 0.5667 19 0 236
-1.6705 -2.3094 -3.8144 118 0 137
2.2542 -2.2907 0.3129 9 0 246
-2.6397 -1.6299 -1.7229 0 0 255
-2.3424 -1.1723 -1.6040 2 0 253
-2.1919 -1.1218 -2.3460 14 0 241
-2.4367 -0.9546 -2.2026 2 0 253
-1.9597 -2.0886 -3.0778 37 0 218
-0.6767 -1.4273 -2.1585 0 0 255
-1.7192 -1.6829 -3.2260 10 0 245
2.6132 -2.7335 0.6807 1 0 254
1.0937 -2.9129 -0.8105 41 0 214
1.2909 -3.8920 -1.9140 72 0 183
-2.3714 -0.7261 -3.3216 11 0 244
-1.6250 -1.8378 -2.6879 1 0 254
-2.2391 -2.5422 -2.6704 10 0 245
2.2425 -2.6550 0.7719 2 0 253
2.2258 -2.5381 0.7643 7 0 248
1.0962 -3.9880 -0.8889 28 0 227
-1.8764 -3.0176 -2.3525 11 0 244
1.0418 -4.0008 0.4539 23 0 232
2.9141 -2.8188 0.4862 50 0 205
0.0995 -4.0902 -1.8307 20 0 235
0.6279 -4.0339 0.6212 10 0 245
0.8799 -3.8549 -0.0449 14 0 241
2.2447 -3.1093 -0.3469 37 0 218
-0.5123 -1.6405 -2.1223 30 0 225
0.8507 -3.8100 -0.6596 14 0 241
-1.8162 0.0801 -2.1933 108 0 147
-0.7158 -3.7800 -3.0338 9 0 246
-1.9879 0.0956 -2.2558 57 0 198
-2.6181 -1.0053 -3.3967 2 0 253
0.2958 -3.9902 -0.0101 1 0 254
-0.6854 -3.3033 -3.2975 21 0 234
-0.3929 -3.0485 0.7267 0 0 255
2.1319 -2.5187 0.6164 1 0 254
-2.2565 -0.2835 -2.9992 22 0 233
0.1016 -3.7309 -1.9852 41 0 214
0.7706 -3.0507 -0.8592 24 0 231
-1.6758 -2.2120 -3.8434 51 0 204
-2.5225 -0.6583 -2.9341 16 0 239
0.3025 -4.2531 0.2397 0 0 255
-0.7944 -3.0112 -2.6987 25 0 230
-2.2677 -0.1410 -1.3858 0 0 255
-0.8138 -2.9514 -2.6636 21 0 234
-2.2104 -2.7757 -2.7455 21 0 234
0.2706 -3.4920 -0.9700 45 0 210
-2.5580 -1.7159 -2.9233 3 0 252
-2.0068 -4.1424 -1.3288 9 0 246
-1.7150 -2.3655 -3.7443 16 0 239
2.0871 -3.4991 -1.2781 42 0 213
2.5403 -2.9320 0.3321 16 0 239
-2.2966 -4.1164 -1.3145 3 0 252
-0.9001 -3.1683 -3.4035 38 0 217
-2.6565 -1.6992 -1.8042 1 0 254
-1.9684 -1.7525 -1.3133 13 0 242
-1.2285 -0.7507 -2.6177 93 0 162
0.1026 -3.4812 1.0511 0 0 255
0.5691 -3.7656 -0.6065 15 0 240
0.2966 -1.5629 -0.9254 0 0 255
1.3189 -4.2172 -1.2896 34 0 221
0.8603 -3.9059 -0.2922 42 0 213
-0.2595 -3.8794 -2.4655 62 0 193
-1.9870 0.2622 -2.1918 3 0 252
0.1055 -4.0784 -0.7474 2 0 253
1.8967 -2.4113 -0.5401 13 0 242
-1.4064 -3.3314 -3.5269 8 0 247
0.6667 -4.0075 -0.9899 63 0 192
0.9830 -3.0244 -0.8099 72 0 183
-2.6482 -1.5915 -2.7139 0 0 255
0.7318 -3.4216 -0.9235 34 0 221
-2.4494 -1.9475 -2.2195 23 0 232
1.0899 -4.1370 -0.7333 23 0 232
-2.3351 -1.9998 -2.9072 8 0 247
-0.2541 -3.1018 0.8783 2 0 253
-1.1753 -2.7160 -3.8006 11 0 244
-1.6226 0.0132 -2.1287 9 0 246
-2.1606 0.1125 -2.2691 22 0 233
-1.3392 -0.0556 -1.7930 144 0 111
-2.4352 -1.6968 -1.2005 5 0 250
-1.4025 -2.4565 -3.8129 43 0 212
-1.8847 -1.5290 -3.2160 13 0 242
2.3545 -2.3668 0.3006 10 0 245
-0.2699 -3.3406 -3.1590 83 0 172
-2.4161 -1.0984 -3.7517 10 0 245
-2.2702 -2.0608 -1.2897 0 0 255
-0.8034 -3.1807 -3.3021 56 0 199
-1.8207 -1.4819 -3.3502 44 0 211
1.2379 -3.7681 -0.1156 23 0 232
-1.7029 -2.8941 -2.3024 5 0 250
0.0622 -3.7174 0.2440 1 0 254
-0.0727 -3.9826 -2.2785 12 0 243
-2.1541 -0.6221 -2.1779 7 0 248
-0.0059 -4.0320 -2.0521 89 0 166
0.4565 -2.8721 -0.7501 49 0 206
0.9562 -4.1411 0.4126 14 0 241
-0.1688 -3.1779 0.4723 1 0 254
-1.2987 -4.1904 -1.6953 49 0 206
-2.4468 -1.3601 -3.4785 16 0 239
-0.1526 -4.2918 -1.4895 15 0 240
-2.2353 0.0690 -1.5546 0 0 255
0.7176 -3.8069 -0.0881 5 0 250
-2.0189 0.1699 -1.4262 3 0 252
-2.2717 -2.4113 -2.7452 5 0 250
-2.0603 -0.5135 -1.8240 0 0 255
2.2072 -2.7583 0.8533 8 0 247
-0.1476 -1.6209 -1.5981 1 0 254
-2.1337 -0.4700 -3.2071 4 0 251
-2.2168 -3.9374 -1.6188 11 0 244
-2.3590 -1.5854 -1.1080 0 0 255
-2.4629 -1.8398 -2.4353 16 0 239
0.2591 -4.1581 -1.1595 39 0 216
-2.6068 -1.6662 -2.1121 1 0 254
0.9469 -3.9901 -0.2955 8 0 247
-0.0594 -3.3240 0.9728 5 0 250
0.7519 -3.9841 0.3028 67 0 188
0.7304 -3.4434 0.1954 6 0 249
-0.7362 -1.3955 -2.2705 10 0 245
-1.9453 -3.2825 -3.0414 4 0 251
-0.5453 -3.6059 -2.4196 66 0 189
-1.5537 -3.1522 -3.6186 8 0 247
-1.2601 -3.4714 -2.2196 41 0 214
0.5745 -2.0109 -0.7868 16 0 239
-1.8140 -0.1956 -2.4573 113 0 142
-2.2291 -3.7950 -1.7513 7 0 248
-2.0106 -4.0998 -1.5670 8 0 247
0.9833 -4.0100 -0.5544 11 0 244
-1.8138 -4.1782 -1.0470 4 0 251
-0.7469 -3.7633 -2.9615 11 0 244
-0.7119 -3.2162 -2.8084 44 0 211
-2.1883 -1.3905 -2.7388 14 0 241
2.3218 -3.0785 0.3709 7 0 248
0.5026 -3.9093 -0.5533 35 0 220
0.1099 -3.7170 -2.8206 38 0 217
0.6014 -3.9306 -2.1717 78 0 177
0.1769 -4.0953 -1.6294 81 0 174
-1.5872 -2.4980 -3.7684 36 0 219
0.4023 -2.4735 -0.5927 0 0 255
-1.2288 -1.5610 -2.4766 16 0 239
0.5069 -4.1300 -0.6789 23 0 232
-2.0900 -0.0335 -1.4598 29 0 226
-1.6990 -1.1049 -3.1262 10 0 245
-2.1401 -1.5772 -3.6928 85 0 170
-1.4087 -2.2492 -3.7161 107 0 148
-0.0214 -3.3513 1.0525 0 0 255
0.9863 -3.1320 -0.8942 10 0 245
0.8812 -3.5765 -1.0847 14 0 241
-1.9268 -2.4310 -3.1321 4 0 251
-1.4268 -3.9919 -1.6365 10 0 245
-1.9818 -3.1907 -3.2932 39 0 216
-2.6114 -1.8910 -2.5674 1 0 254
-2.7137 -1.5192 -2.5058 0 0 255
2.1621 -2.1183 0.2736 47 0 208
2.3385 -2.6810 -0.3308 0 0 255
-0.6670 -2.7237 -2.9683 13 0 242
0.4999 -3.9452 -1.8141 101 0 154
-1.9088 0.1630 -2.3464 41 0 214
-2.1844 -2.2207 -2.7112 29 0 226
2.7898 -2.6595 0.1302 37 0 218
0.5009 -1.7397 -0.8830 16 0 239
-0.2083 -3.8876 -2.5035 6 0 249
-1.9662 -3.2346 -3.2157 13 0 242
0.1267 -3.6762 -2.7146 12 0 243
0.9252 -4.2373 0.4176 31 0 224
-2.0795 -1.1188 -3.4511 17 0 238
0.6538 -4.1604 0.6104 32 0 223
-2.3438 -2.3660 -2.8075 10 0 245
-2.1632 0.0879 -2.3313 77 0 178
-0.3600 -3.7339 -2.6386 38 0 217
-2.1315 -4.1432 -1.4195 3 0 252
1.5842 -3.8226 -0.3264 16 0 239
-0.3634 -3.1719 0.7237 7 0 248
-1.2007 -3.3145 -3.5117 77 0 178
-2.0299 -2.5670 -2.8627 7 0 248
-0.7962 -1.5757 -2.5262 47 0 208
-1.7168 -3.0961 -3.4847 39 0 216
-2.2577 -0.3993 -1.3119 4 0 251
-1.3508 -0.6002 -2.5592 55 0 200
0.4855 -1.6595 -0.9383 22 0 233
-1.1345 -2.8722 -2.9096 24 0 231
1.7438 -3.4401 -0.2404 9 0 246
0.8148 -4.3207 -0.7693 7 0 248
0.8871 -4.1662 0.3093 45 0 210
0.2206 -1.4891 -1.1726 103 0 152
0.1157 -1.6083 -1.2914 0 0 255
-0.5561 -1.4272 -2.0398 22 0 233
-2.6870 -1.5547 -2.0257 2 0 253
0.4757 -4.1094 0.7479 0 0 255
2.1048 -3.1660 0.5840 22 0 233
-1.0975 -2.2989 -3.4869 104 0 151
-2.3823 -0.9144 -2.4639 25 0 230
0.6649 -2.1210 -0.6404 12 0 243
-0.1316 -1.5781 -1.6057 1 0 254
0.6752 -4.0752 -0.4349 20 0 235
-2.1664 -0.2914 -2.6015 12 0 243
0.4025 -1.6597 -0.8469 21 0 234
1.4077 -4.0066 -1.6365 34 0 221
-2.0918 -2.4254 -2.9103 16 0 239
-2.4367 -3.9731 -1.3222 0 0 255
1.1926 -4.0842 -1.2079 8 0 247
-2.0080 -1.7277 -3.4060 12 0 243
-1.1061 -2.5791 -2.9365 16 0 239
2.5918 -2.7635 -0.0317 220 0 35
-1.2698 -1.5562 -3.3018 13 0 242
0.5561 -4.1025 0.5064 3 0 252
-2.2847 -0.0654 -1.9075 1 0 254
0.5258 -4.2744 0.6619 4 0 251
0.2368 -4.0051 -1.7542 38 0 217
-2.6220 -1.0618 -3.0535 11 0 244
0.6491 -4.2563 -0.8514 6 0 249
0.7666 -3.8780 -1.7239 113 0 142
-2.1285 0.1523 -1.7531 5 0 250
0.5498 -3.5682 -0.1455 7 0 248
-2.5319 -1.2924 -1.6072 4 0 251
-1.2886 -2.6157 -3.0625 22 0 233
-2.1721 -4.0683 -1.4839 8 0 247
2.5055 -2.8189 0.3358 6 0 249
1.0785 -2.9262 -0.7874 58 0 197
1.6586 -4.0602 -1.5104 7 0 248
-0.3484 -2.0796 -1.9961 25 0 230
-2.1711 -1.7361 -2.4061 22 0 233
0.6409 -1.5766 -0.8527 6 0 249
-1.6731 0.1695 -1.4016 16 0 239
2.7160 -2.8416 0.4491 198 0 57
-2.3735 0.1311 -2.1085 16 0 239
0.8938 -3.0156 -0.0766 17 0 238
0.8946 -3.6024 0.8323 1 0 254
-2.1298 -3.2575 -2.7973 5 0 250
2.1379 -3.3290 -1.1628 0 0 255
-2.2632 0.1029 -1.6539 1 0 254
1.1629 -2.3237 -0.7128 15 0 240
0.4083 -1.7921 -0.9276 14 0 241
-1.8331 -1.2384 -2.8940 25 0 230
-0.5629 -3.6211 -2.4711 32 0 223
-0.9311 -2.0353 -2.8688 17 0 238
-1.7825 -2.6948 -2.8166 16 0 239
-1.4089 -2.7790 -3.7770 27 0 228
0.9519 -2.8754 -0.1901 5 0 250
1.6228 -3.1727 0.6631 1 0 254
0.5165 -3.8749 -2.4786 76 0 179
-1.5560 -1.8721 -3.4667 27 0 228
2.4647 -2.8990 0.2215 33 0 222
-2.2237 -1.9002 -1.5263 35 0 220
0.5435 -3.9539 -0.2076 3 0 252
-2.3571 -1.9848 -1.3905 1 0 254
-0.5174 -2.9809 0.6566 0 0 255
-0.8123 -2.9340 -3.0388 11 0 244
1.9267 -2.6565 -0.7411 38 0 217
-2.0684 -0.3770 -1.8643 6 0 249
-0.4016 -3.7775 -2.6178 54 0 201
0.6012 -2.9878 -0.2713 11 0 244
-1.7432 -1.7280 -3.4276 84 0 171
-2.1378 -1.0236 -2.9720 14 0 241
-1.8779 -2.1709 -3.4668 8 0 247
2.1156 -2.3591 -0.2257 1 0 254
1.4492 -4.0304 -1.5098 16 0 239
1.9704 -2.8155 0.9685 4 0 251
-2.1811 -0.0573 -1.3813 3 0 252
-2.3173 -4.0212 -1.2615 3 0 252
1.0509 -3.4450 -0.7347 12 0 243
0.3216 -3.6936 -2.8100 13 0 242
-2.3555 -1.6368 -3.2402 7 0 248
-2.2414 -1.2401 -3.5759 14 0 241
0.4350 -2.4254 -0.5471 1 0 254
-2.2521 -2.3557 -3.0129 3 0 252
-1.9124 -3.0460 -3.1664 13 0 242
0.5706 -4.1585 0.4418 3 0 252
-2.4053 -0.9889 -3.6597 13 0 242
-0.7312 -2.9475 -2.6195 20 0 235
2.8357 -2.6592 0.3951 4 0 251
1.1160 -4.2681 -1.0316 2 0 253
0.2940 -1.5300 -1.0221 7 0 248
-1.7836 -3.2844 -3.0849 12 0 243
0.7232 -3.8227 -1.6347 255 0 0
1.5826 -2.1682 -0.5746 25 0 230
2.6763 -2.8193 0.5954 0 0 255
-2.1808 -0.6822 -2.5189 10 0 245
-1.3456 -2.7292 -3.6622 12 0 243
2.5961 -2.7689 0.6359 100 0 155
1.4815 -4.0859 -1.5091 27 0 228
0.4158 -3.9803 0.8434 2 0 253
0.2495 -3.3414 -0.7373 10 0 245
0.7592 -4.2017 -0.2852 12 0 243
0.7045 -4.2559 0.5213 2 0 253
0.2856 -3.9274 -0.0488 0 0 255
0.6600 -3.9484 -1.7295 38 0 217
2.8887 -2.7231 0.4375 11 0 244
0.8074 -3.8929 -2.1343 204 0 51
-2.3331 0.0780 -2.4615 11 0 244
-0.8862 -3.0829 -2.6571 9 0 246
-1.9957 0.0641 -2.1295 6 0 249
-0.7774 -3.5145 -2.5277 34 0 221
2.8023 -2.7525 0.5213 129 0 126
-1.0406 -1.5818 -2.8062 19 0 236
-0.1966 -3.2020 -1.8840 37 0 218
-2.0524 0.1901 -1.6764 1 0 254
0.4969 -3.2063 -1.1060 30 0 225
1.2029 -2.1449 -0.6434 5 0 250
0.8091 -3.5119 -1.0085 41 0 214
-1.3344 -3.2399 -3.5100 27 0 228
2.6096 -2.5653 0.0463 53 0 202
-2.1587 -2.5099 -3.2123 0 0 255
-2.2118 -0.1487 -1.1795 0 0 255
-2.2095 -1.7874 -3.1956 8 0 247
2.8623 -2.6518 0.1861 58 0 197
-2.3805 -4.1211 -1.3128 0 0 255
-0.6772 -1.3805 -1.7735 2 0 253
2.3514 -2.4242 0.8741 3 0 252
-1.9466 -0.9147 -2.7671 16 0 239
-2.5581 -1.6565 -2.6184 1 0 254
2.5548 -2.4453 0.0015 204 0 51
-2.0605 -2.3652 -2.7818 20 0 235
0.2457 -3.8540 -2.0604 29 0 226
-0.2982 -3.5681 -2.9409 131 0 124
-0.1676 -4.2078 -1.6379 5 0 250
-1.7408 -1.7749 -2.3978 9 0 246
-0.0295 -3.8375 -2.6600 220 0 35
2.5689 -2.4986 -0.0146 113 0 142
-1.8085 -0.0355 -2.1815 78 0 177
0.5735 -3.1401 -0.8053 32 0 223
-1.5598 -2.8962 -3.0232 29 0 226
-1.5950 -0.2238 -1.8307 24 0 231
-2.4039 -2.0656 -2.8174 11 0 244
0.1652 -3.3400 1.0005 3 0 252
-1.5148 -4.0409 -1.0561 6 0 249
-1.5854 -1.4999 -2.7791 28 0 227
0.2383 -3.4622 0.6494 0 0 255
2.7253 -2.7794 0.5641 0 0 255
-2.2043 -2.9776 -2.7024 7 0 248
-2.0338 -4.1447 -1.1589 28 0 227
0.5089 -3.2592 -0.8995 16 0 239
-0.9921 -1.7287 -2.7659 18 0 237
0.3360 -3.3868 1.0473 3 0 252
1.1853 -3.8335 -0.0357 21 0 234
-1.3771 -0.0959 -1.9554 100 0 155
0.4988 -2.7739 -0.5832 33 0 222
0.6370 -2.8164 -0.2088 13 0 242
-1.4307 -3.1382 -2.8358 1 0 254
-1.8623 -4.1851 -1.2882 5 0 250
0.8838 -3.5000 0.1107 48 0 207
0.0262 -3.3855 0.9599 6 0 249
2.1492 -3.3352 -1.1181 18 0 237
2.0780 -3.4669 -1.1963 40 0 215
-2.0844 -0.0653 -1.2658 3 0 252
-1.5186 -1.3466 -2.8970 40 0 215
1.4866 -3.9647 -0.2422 3 0 252
-2.6103 -1.1336 -2.0373 5 0 250
0.7270 -3.6202 -0.8511 3 0 252
1.6315 -4.0467 -1.4104 19 0 236
2.6033 -2.7367 -0.0888 12 0 243
0.2152 -3.4958 0.9945 4 0 251
-1.1759 -1.7414 -2.8308 16 0 239
-2.2409 -0.2786 -2.7039 14 0 241
-2.4164 -0.7046 -3.4339 19 0 236
0.6638 -1.8239 -0.8110 11 0 244
-2.2839 -0.0094 -1.5719 1 0 254
-2.4645 0.0065 -2.4956 24 0 231
0.7089 -3.6625 -0.9348 30 0 225
-2.4524 -0.9369 -3.7299 54 0 201
-2.2199 -0.5137 -2.5608 1 0 254
-2.3408 -0.8723 -3.5823 10 0 245
-2.2181 -0.7995 -3.5252 14 0 241
0.3036 -4.2086 0.1287 0 0 255
-1.1089 -3.2492 -3.1277 12 0 243
-2.3433 -0.0466 -2.3958 0 0 255
0.2492 -3.5512 0.8719 10 0 245
0.6619 -3.5500 0.9571 2 0 253
2.0682 -3.4986 -1.2652 74 0 181
-1.3511 -0.6373 -2.5755 8 0 247
0.3370 -3.5668 0.9554 9 0 246
0.8054 -2.0800 -0.7474 31 0 224
1.9088 -3.3904 -0.5346 17 0 238
1.6237 -2.2309 -0.6274 21 0 234
-1.8169 -1.7002 -3.6890 36 0 219
0.4271 -1.6924 -0.9280 46 0 209
-1.5803 0.1115 -1.5304 41 0 214
1.4825 -3.8489 0.0378 4 0 251
-1.7588 -1.9261 -3.2965 15 0 240
1.0521 -3.2336 -0.8511 11 0 244
-2.0976 -2.2546 -3.1820 10 0 245
-1.5019 -2.1467 -2.8799 8 0 247
1.9976 -2.9304 0.8961 1 0 254
-0.6590 -3.5827 -2.4849 58 0 197
-1.6886 -4.0214 -1.8587 11 0 244
0.3757 -3.8261 -0.2169 18 0 237
-1.1839 -1.4434 -2.8322 56 0 199
1.4707 -2.2137 -0.6660 12 0 243
-1.9334 -3.9885 -1.6193 17 0 238
-2.2377 -0.1079 -1.3136 3 0 252
2.0870 -3.5173 -1.2873 42 0 213
0.3091 -3.8717 -2.5683 76 0 179
-2.3500 -0.7608 -3.6399 13 0 242
-2.0074 -1.9206 -3.6954 34 0 221
-2.1553 -2.0702 -2.5709 13 0 242
-2.4335 -0.7074 -2.7126 24 0 231
1.4142 -4.0434 -1.2068 5 0 250
-1.7455 -1.7281 -2.4956 1 0 254
-2.0782 -1.7950 -3.5691 65 0 190
-1.6975 -3.1642 -3.5455 14 0 241
-2.4711 -1.1044 -3.7814 7 0 248
-1.5200 0.1505 -1.4299 36 0 219
-2.1406 -2.2425 -3.4728 7 0 248
0.7632 -3.5939 -1.3468 27 0 228
0.9372 -3.8433 0.1441 13 0 242
-2.2862 -3.8413 -1.6651 1 0 254
-1.6768 -1.2690 -3.0033 19 0 236
0.6453 -3.8216 -1.4510 28 0 227
2.2821 -2.5939 0.9955 14 0 241
-0.5675 -3.0492 -2.9291 52 0 203
-0.0502 -4.3259 -1.3415 50 0 205
0.3866 -4.0655 0.8172 0 0 255
-2.5195 -2.4134 -1.9181 1 0 254
-0.8198 -1.3673 -2.3384 16 0 239
0.5800 -3.7588 0.9277 5 0 250
0.2856 -4.0069 -1.9030 28 0 227
0.7722 -4.0915 -0.4614 2 0 253
-0.1883 -3.1963 0.8934 0 0 255
-1.9078 -0.0789 -2.3649 14 0 241
-2.4352 -1.2950 -3.7946 19 0 236
2.1619 -3.3753 -1.1412 6 0 249
-2.4079 -1.6128 -1.0986 0 0 255
-1.4419 -0.5655 -2.5917 46 0 209
2.3613 -2.5763 0.9018 9 0 246
0.7839 -3.4800 -0.6908 59 0 196
-1.7439 -0.1367 -1.8144 71 0 184
-1.1763 -1.5015 -3.1911 9 0 246
-2.1854 -2.1146 -3.0749 24 0 231
0.3082 -3.9196 -0.1966 2 0 253
-0.7569 -3.3934 -3.2579 32 0 223
1.3214 -4.2698 -1.2924 11 0 244
-1.4996 -2.9379 -3.4265 9 0 246
-2.5262 -0.4636 -1.7459 1 0 254
1.2616 -4.1027 -0.8106 3 0 252
0.0102 -3.9530 -2.2086 79 0 176
2.5653 -2.7649 0.3937 114 0 141
-0.1150 -3.0782 -1.8410 6 0 249
1.7041 -3.6965 -1.0241 27 0 228
-2.2551 -4.0646 -1.2978 1 0 254
1.0205 -4.3227 -0.9791 24 0 231
-1.2293 -3.2990 -2.7382 14 0 241
0.8379 -3.0463 -0.9248 26 0 229
-1.3323 -1.9845 -3.0083 12 0 243
-2.3346 -3.9570 -1.2846 4 0 251
1.0195 -3.5934 0.1894 13 0 242
-1.7587 -1.3226 -3.3450 48 0 207
-2.0294 0.1357 -2.0363 7 0 248
-0.3684 -3.0068 -2.4835 4 0 251
-2.1265 -3.1015 -3.1574 1 0 254
-0.7008 -3.8081 -2.9560 17 0 238
1.8259 -3.8324 -1.3291 21 0 234
-2.6489 -1.8120 -2.2756 0 0 255
-1.6743 0.0070 -2.3197 12 0 243
-2.2855 -3.9236 -1.5729 0 0 255
0.5656 -4.4488 0.3127 3 0 252
0.8216 -3.9232 -2.3670 33 0 222
-1.9391 -1.7373 -3.8576 26 0 229
-1.7159 -1.6462 -3.1772 40 0 215
-1.8699 0.2039 -2.1784 12 0 243
1.4615 -3.6687 -0.9981 63 0 192
2.0625 -3.2837 -1.1185 1 0 254
-1.8876 0.0296 -1.9987 2 0 253
-0.7905 -3.0222 -2.6904 62 0 193
0.5049 -1.8058 -0.9148 62 0 193
0.2912 -3.4403 -0.5856 1 0 254
-0.9665 -1.6983 -2.6444 7 0 248
-0.0237 -4.1320 -2.2558 122 0 133
0.7943 -4.1117 0.0083 7 0 248
2.4781 -2.7108 0.6613 7 0 248
-2.4009 -4.0061 -1.3571 0 0 255
-2.6591 -1.5211 -2.9165 0 0 255
-2.6319 -1.4809 -1.8425 2 0 253
-2.2784 -2.5202 -2.6312 1 0 254
-0.7218 -3.2781 -2.7061 0 0 255
-1.8918 -1.3374 -2.0812 6 0 249
-2.5310 -1.7434 -1.8348 4 0 251
1.4102 -3.9457 0.0022 29 0 226
2.4267 -2.8243 -0.2053 41 0 214
-1.5012 -3.2644 -3.1212 22 0 233
0.4330 -4.0369 -1.7707 16 0 239
2.7040 -2.6566 0.1143 131 0 124
0.1798 -3.4267 -1.6606 84 0 171
-1.6412 -2.7434 -3.8173 63 0 192
-0.2589 -3.3993 -2.6958 23 0 232
-1.6787 -2.6238 -3.6967 54 0 201
-0.9049 -2.9042 -3.6961 7 0 248
-1.1615 -2.7636 -3.6035 8 0 247
0 418
0 509
0 168
0 75
1 452
1 346
1 223
1 155
2 482
2 94
2 82
2 299
3 104
3 54
3 360
3 447
5 418
5 258
5 168
6 232
6 191
6 49
6 230
7 113
7 370
7 216
7 470
8 299
8 236
8 313
8 249
11 156
11 226
11 419
11 258
12 446
13 214
13 304
13 15
13 493
14 342
14 215
14 162
14 236
15 383
15 243
15 267
16 151
16 174
16 48
16 298
17 488
17 209
17 257
18 349
18 392
18 141
18 376
19 71
19 136
19 183
19 487
20 155
20 434
20 487
20 70
21 78
21 224
21 494
21 331
22 434
22 109
22 112
22 339
23 109
23 360
23 387
23 411
24 487
24 194
24 339
24 155
25 288
25 266
25 258
25 302
26 304
26 493
26 267
26 460
27 169
27 106
27 509
27 149
28 178
28 108
28 336
28 343
29 80
29 239
29 138
29 476
30 156
30 351
30 239
30 366
31 351
31 370
31 203
31 216
32 372
32 496
32 216
33 277
33 399
33 411
33 113
35 113
35 418
35 399
37 243
37 94
37 396
37 299
38 313
38 198
38 339
39 378
39 278
39 302
39 62
40 422
41 199
41 419
41 223
41 452
42 43
42 493
44 93
44 324
44 484
44 464
45 79
45 487
45 72
46 265
46 313
46 94
46 208
47 318
47 249
47 505
47 228
48 459
48 181
48 504
48 119
49 391
49 191
49 292
49 439
50 158
50 141
50 219
50 359
51 502
51 228
51 484
51 505
52 211
52 200
52 245
52 209
53 87
53 449
53 141
54 149
54 344
54 470
55 106
55 88
55 474
55 339
56 182
56 149
56 62
57 244
59 112
59 339
59 198
59 233
60 271
60 442
62 182
62 378
62 168
63 145
63 233
63 338
63 169
64 466
64 324
64 345
64 449
65 277
65 112
65 470
66 382
66 420
66 344
66 216
67 388
68 155
68 205
68 459
68 434
70 487
70 155
70 434
70 294
71 509
71 201
72 320
72 345
72 487
72 236
73 287
73 136
73 511
73 329
74 151
74 355
74 219
74 241
75 509
75 418
75 168
76 415
76 198
76 393
77 505
77 249
77 460
77 228
78 494
78 224
79 112
79 339
79 434
79 487
80 138
80 224
80 239
81 268
81 408
81 336
81 506
82 203
82 447
82 149
82 360
84 93
84 299
84 383
84 161
85 297
86 435
86 222
86 484
87 141
87 449
87 152
88 119
88 491
88 339
88 145
89 178
89 483
89 104
90 191
91 273
91 367
91 412
91 326
92 424
92 201
92 509
92 146
93 233
93 161
93 181
94 299
94 243
94 336
95 495
96 324
96 181
96 484
97 423
97 169
97 136
98 464
98 158
99 215
99 348
100 442
101 106
101 507
101 262
102 483
102 203
102 344
103 193
103 182
103 250
103 314
104 360
104 336
104 506
105 446
106 169
106 145
106 162
107 258
107 470
107 418
108 178
108 228
108 505
108 460
109 342
109 339
109 313
109 277
110 444
110 293
110 386
112 339
112 491
112 275
113 168
113 418
113 452
113 258
114 313
115 277
115 320
115 183
116 453
117 342
117 119
117 491
117 161
118 344
118 420
118 481
119 459
119 339
119 181
120 299
120 236
120 336
120 342
121 189
121 501
123 342
123 299
123 275
124 168
124 444
124 288
124 420
125 435
125 491
126 255
127 269
127 158
127 219
129 452
129 223
129 419
131 505
131 336
131 249
131 506
133 168
133 387
134 150
134 413
134 291
134 409
136 351
136 183
136 156
137 233
137 158
137 165
138 476
138 419
138 156
139 449
139 383
140 366
140 376
140 141
140 391
141 208
141 492
142 365
142 469
143 438
143 211
143 200
144 187
144 174
144 199
145 169
146 424
146 201
146 507
146 509
147 435
147 487
147 408
147 491
148 396
148 365
148 345
148 488
149 470
149 482
150 413
150 253
151 195
151 409
151 241
153 355
153 243
153 364
154 339
154 459
154 155
155 487
155 339
155 459
155 434
156 418
156 199
156 329
157 267
157 460
157 505
158 165
159 339
159 265
159 342
160 313
160 299
160 342
160 265
161 299
161 342
161 336
161 506
162 215
162 198
162 342
164 411
164 169
164 200
166 283
166 450
166 471
166 414
167 431
167 470
168 509
168 418
169 342
169 215
170 349
170 366
170 442
170 391
171 243
171 466
171 285
172 324
172 449
172 383
173 205
173 403
173 405
174 413
174 262
175 198
178 360
178 336
178 506
180 434
180 260
181 459
181 311
181 339
182 483
183 215
183 277
183 198
184 330
184 326
184 505
184 343
185 396
185 488
185 211
186 459
186 339
186 435
187 201
187 424
187 298
187 291
188 342
188 481
188 416
188 338
189 491
189 435
189 208
190 277
191 214
192 452
193 378
194 339
194 275
195 409
195 284
195 241
196 359
196 501
196 305
197 435
197 344
198 339
198 275
198 342
199 405
199 403
199 418
200 203
200 411
200 260
201 509
201 346
201 424
202 239
202 471
203 447
203 277
204 488
204 400
204 221
204 257
205 240
205 487
205 434
206 359
206 397
207 464
207 219
208 491
209 360
209 211
211 341
213 306
213 230
214 304
215 236
215 342
215 299
217 396
217 343
217 460
219 410
220 378
220 420
220 314
221 297
221 257
221 488
222 484
222 305
223 405
223 452
224 494
225 432
225 475
225 504
226 266
226 405
226 418
227 487
227 351
228 505
228 249
228 460
228 299
229 482
230 292
231 250
232 292
234 382
234 288
236 299
236 313
237 250
238 383
238 449
239 496
240 346
240 487
240 509
241 413
242 460
242 267
242 502
243 299
244 374
244 305
244 475
245 434
245 454
246 482
246 277
247 400
247 336
247 300
248 426
248 401
249 318
249 299
249 313
250 314
250 382
251 313
252 439
253 262
255 414
256 506
256 336
256 342
257 488
257 356
257 466
258 334
258 418
260 434
261 487
262 339
263 361
265 313
265 342
265 491
266 418
266 509
267 460
267 505
267 318
268 408
268 337
269 410
273 412
273 368
273 367
275 342
275 491
276 362
276 449
276 410
277 482
277 470
278 334
279 418
279 403
279 509
281 305
281 374
281 475
282 433
284 355
285 404
286 339
287 418
287 329
288 418
288 509
288 444
290 419
290 452
290 427
290 405
291 346
291 509
291 452
292 309
293 399
293 444
293 386
294 434
294 299
295 318
295 312
295 330
296 464
298 346
299 313
299 336
300 343
300 398
300 396
302 378
303 511
303 509
303 418
304 318
304 330
304 505
305 475
306 439
306 436
307 356
307 487
307 410
307 449
308 459
308 383
308 311
309 501
312 330
312 318
314 378
314 420
315 317
315 487
316 483
318 505
319 411
319 482
319 360
320 487
320 459
321 486
322 345
322 324
323 412
323 398
323 426
324 449
324 345
324 383
325 339
326 505
326 343
326 330
329 452
329 405
329 418
330 505
333 448
333 450
333 433
334 418
336 506
336 342
338 342
339 459
339 491
340 464
341 419
343 505
345 383
346 509
347 506
347 360
348 452
348 418
349 376
349 391
350 410
350 413
351 370
351 431
351 377
351 487
352 391
355 413
356 466
356 449
357 467
359 501
359 429
360 506
362 400
362 449
362 410
364 464
364 413
364 374
365 396
366 391
367 445
367 415
367 368
368 393
370 470
370 447
371 429
372 420
373 449
373 432
374 484
374 459
375 505
375 484
376 391
376 395
377 487
379 481
380 396
380 488
387 423
387 481
389 434
392 439
395 439
396 502
397 484
397 502
398 412
399 418
399 481
400 488
402 501
402 464
403 418
403 405
404 484
405 418
405 452
406 467
408 491
409 508
410 449
411 482
416 491
417 482
418 509
419 452
420 481
421 484
422 427
425 444
425 481
427 452
432 459
434 487
435 491
435 459
436 439
448 460
448 450
450 506
455 464
456 509
458 464
459 491
460 505
462 484
465 487
471 483
472 487
502 505
507 509
510 511
